<svg width="181" height="56" viewBox="0 0 181 56" fill="none" xmlns="http://www.w3.org/2000/svg">
<rect width="181" height="56" rx="28" fill="#0D0D0D"/>
<path d="M33.376 30.704C33.376 32.8 31.84 34 29.456 34H25.248V22.512H29.232C31.552 22.512 32.944 23.584 32.944 25.52C32.944 26.608 32.288 27.536 31.184 28.016C32.608 28.416 33.376 29.392 33.376 30.704ZM29.12 23.92H26.864V27.376H29.12C30.512 27.376 31.264 26.72 31.264 25.648C31.264 24.576 30.512 23.92 29.12 23.92ZM29.344 28.784H26.864V32.592H29.344C30.848 32.592 31.696 31.872 31.696 30.656C31.696 29.488 30.848 28.784 29.344 28.784ZM38.5083 34.16C36.1083 34.16 34.3483 32.272 34.3483 29.76C34.3483 27.248 36.1083 25.36 38.5083 25.36C40.9083 25.36 42.6683 27.248 42.6683 29.76C42.6683 32.272 40.9083 34.16 38.5083 34.16ZM38.5083 32.736C39.9003 32.736 41.0043 31.616 41.0043 29.76C41.0043 27.904 39.9003 26.8 38.5083 26.8C37.1163 26.8 36.0283 27.904 36.0283 29.76C36.0283 31.616 37.1163 32.736 38.5083 32.736ZM47.5476 34.16C45.1476 34.16 43.3876 32.272 43.3876 29.76C43.3876 27.248 45.1476 25.36 47.5476 25.36C49.9476 25.36 51.7076 27.248 51.7076 29.76C51.7076 32.272 49.9476 34.16 47.5476 34.16ZM47.5476 32.736C48.9396 32.736 50.0436 31.616 50.0436 29.76C50.0436 27.904 48.9396 26.8 47.5476 26.8C46.1556 26.8 45.0676 27.904 45.0676 29.76C45.0676 31.616 46.1556 32.736 47.5476 32.736ZM54.651 34H53.035V22.512H54.651V29.312L58.283 25.52H60.187L56.267 29.632L60.555 34H58.475L54.651 29.984V34ZM69.531 34.24C66.331 34.24 63.851 31.632 63.851 28.24C63.851 24.864 66.331 22.272 69.531 22.272C72.411 22.272 74.715 24.192 75.147 27.024H73.275C72.955 25.168 71.451 23.856 69.547 23.856C67.275 23.856 65.675 25.696 65.675 28.24C65.675 30.816 67.275 32.656 69.547 32.656C71.451 32.656 72.955 31.328 73.275 29.472H75.147C74.715 32.32 72.411 34.24 69.531 34.24ZM80.0801 34.16C77.6801 34.16 75.9201 32.272 75.9201 29.76C75.9201 27.248 77.6801 25.36 80.0801 25.36C82.4801 25.36 84.2401 27.248 84.2401 29.76C84.2401 32.272 82.4801 34.16 80.0801 34.16ZM80.0801 32.736C81.4721 32.736 82.5761 31.616 82.5761 29.76C82.5761 27.904 81.4721 26.8 80.0801 26.8C78.6881 26.8 77.6001 27.904 77.6001 29.76C77.6001 31.616 78.6881 32.736 80.0801 32.736ZM87.1835 29.216V34H85.5675V25.52H87.0715V26.928C87.6475 25.984 88.6075 25.36 89.7755 25.36C91.5195 25.36 92.6715 26.48 92.6715 28.512V34H91.0555V29.056C91.0555 27.6 90.4155 26.784 89.2155 26.784C88.1115 26.784 87.1835 27.712 87.1835 29.216ZM101.218 31.472C101.218 33.136 99.9215 34.16 97.6655 34.16C95.4255 34.16 94.0975 33.056 93.9375 31.232H95.4895C95.5535 32.288 96.4015 32.944 97.6975 32.944C98.8335 32.944 99.5855 32.544 99.5855 31.744C99.5855 31.04 99.1535 30.736 98.0975 30.528L96.7215 30.272C95.1535 29.968 94.2735 29.168 94.2735 27.888C94.2735 26.4 95.5695 25.36 97.5375 25.36C99.5695 25.36 100.946 26.448 101.09 28.192H99.5375C99.4415 27.168 98.6895 26.576 97.5535 26.576C96.5295 26.576 95.8415 27.008 95.8415 27.744C95.8415 28.432 96.2735 28.752 97.2975 28.944L98.7375 29.216C100.418 29.52 101.218 30.256 101.218 31.472ZM107.958 30.512V25.52H109.574V34H108.07V32.656C107.622 33.536 106.63 34.16 105.478 34.16C103.766 34.16 102.582 33.152 102.582 30.976V25.52H104.198V30.656C104.198 32.128 104.934 32.736 105.99 32.736C107.078 32.736 107.958 31.84 107.958 30.512ZM113.13 34H111.498V22.512H113.13V34ZM119.837 32.432V33.856C119.341 34.08 118.909 34.16 118.397 34.16C116.829 34.16 115.741 33.312 115.741 31.44V26.896H113.869V25.52H115.741V23.008H117.357V25.52H119.917V26.896H117.357V31.072C117.357 32.24 117.917 32.656 118.781 32.656C119.165 32.656 119.501 32.592 119.837 32.432ZM126.275 34V32.688C125.747 33.632 124.803 34.16 123.555 34.16C121.795 34.16 120.643 33.152 120.643 31.6C120.643 29.936 121.971 29.072 124.499 29.072C124.995 29.072 125.395 29.088 126.083 29.168V28.544C126.083 27.328 125.427 26.64 124.307 26.64C123.123 26.64 122.403 27.344 122.355 28.528H120.883C120.963 26.624 122.323 25.36 124.307 25.36C126.403 25.36 127.619 26.544 127.619 28.56V34H126.275ZM122.179 31.552C122.179 32.432 122.835 33.008 123.875 33.008C125.235 33.008 126.083 32.16 126.083 30.864V30.176C125.459 30.096 125.011 30.08 124.595 30.08C122.979 30.08 122.179 30.56 122.179 31.552ZM134.166 32.432V33.856C133.67 34.08 133.238 34.16 132.726 34.16C131.158 34.16 130.07 33.312 130.07 31.44V26.896H128.198V25.52H130.07V23.008H131.686V25.52H134.246V26.896H131.686V31.072C131.686 32.24 132.246 32.656 133.11 32.656C133.494 32.656 133.83 32.592 134.166 32.432ZM137.436 23.552C137.436 24.16 136.956 24.624 136.268 24.624C135.58 24.624 135.084 24.16 135.084 23.552C135.084 22.928 135.58 22.48 136.268 22.48C136.956 22.48 137.436 22.928 137.436 23.552ZM137.084 34H135.468V25.52H137.084V34ZM142.559 34.16C140.159 34.16 138.399 32.272 138.399 29.76C138.399 27.248 140.159 25.36 142.559 25.36C144.959 25.36 146.719 27.248 146.719 29.76C146.719 32.272 144.959 34.16 142.559 34.16ZM142.559 32.736C143.951 32.736 145.055 31.616 145.055 29.76C145.055 27.904 143.951 26.8 142.559 26.8C141.167 26.8 140.079 27.904 140.079 29.76C140.079 31.616 141.167 32.736 142.559 32.736ZM149.663 29.216V34H148.047V25.52H149.551V26.928C150.127 25.984 151.087 25.36 152.255 25.36C153.999 25.36 155.151 26.48 155.151 28.512V34H153.535V29.056C153.535 27.6 152.895 26.784 151.695 26.784C150.591 26.784 149.663 27.712 149.663 29.216Z" fill="white"/>
</svg>
