<svg width="530" height="439" viewBox="0 0 702 338" fill="none" xmlns="http://www.w3.org/2000/svg">
<g filter="url(#filter0_ii_30_792)">
<circle cx="169.504" cy="168.555" r="168.555" fill="white"/>
</g>
<path d="M106.626 135.194C109.694 135.194 111.046 131.242 111.046 127.03C111.046 122.688 109.668 118.554 106.392 118.554C103.35 118.554 101.972 122.506 101.972 126.718C101.972 131.06 103.376 135.194 106.626 135.194ZM106.366 136.26C100.854 136.26 97.9164 132.022 97.9164 127.238C97.9164 121.284 101.686 117.488 106.678 117.488C112.164 117.488 115.128 121.726 115.128 126.51C115.128 132.464 111.358 136.26 106.366 136.26ZM129.727 125.028V133.244C129.727 134.128 129.779 134.414 130.767 134.492L131.417 134.544V135.324L126.685 136.26H126.035L126.113 133.764C125.021 134.986 123.643 136.26 121.589 136.26C119.301 136.26 117.819 134.96 117.819 132.048V125.288C117.819 124.43 117.637 124.014 116.623 123.832L116.207 123.754V122.974L120.991 121.986H121.563L121.433 125.08V131.58C121.433 133.166 122.031 134.102 123.461 134.102C124.501 134.102 125.281 133.66 126.113 133.114V125.288C126.113 124.43 125.931 124.014 124.917 123.832L124.527 123.754V122.974L129.259 121.986H129.831L129.727 125.028ZM137.49 126.614V133.79C137.49 134.856 138.088 135.012 139.7 135.142V136H132.264V135.142C133.486 135.064 133.902 134.908 133.902 133.998V124.794L132.342 123.884V123.39L136.996 121.96H137.594L137.49 125.808C138.738 122.974 139.518 121.96 141.052 121.96C141.598 121.96 141.988 122.142 142.196 122.402V125.21H141.702C140.09 125.21 138.816 125.288 137.49 126.614ZM165.402 132.802L164.102 122.038L159.11 136H157.81L152.558 122.038L151.232 132.802C151.206 132.984 151.18 133.348 151.18 133.426C151.18 134.7 151.752 134.96 153.65 135.09V136H147.644V135.09C149.126 135.012 149.672 134.726 149.802 133.53L151.414 120.556C151.414 119.178 150.92 118.736 149.204 118.658V117.748H155.08C155.132 118.346 155.288 118.762 155.496 119.334L159.734 130.67L163.686 119.308C163.894 118.736 164.05 118.346 164.102 117.748H169.9V118.658C168.236 118.736 167.716 119.178 167.716 120.556L169.328 133.53C169.484 134.778 170.03 135.012 171.46 135.09V136H163.01V135.09C164.83 134.96 165.454 134.7 165.454 133.426C165.454 133.348 165.428 132.984 165.402 132.802ZM177.506 121.96V133.998C177.506 134.908 177.922 135.064 179.144 135.142V136H172.28V135.142C173.502 135.064 173.918 134.908 173.918 133.998V124.794L172.358 123.884V123.39L176.934 121.96H177.506ZM175.66 120.4C174.412 120.4 173.554 119.438 173.554 118.346C173.554 117.228 174.412 116.292 175.66 116.292C176.934 116.292 177.792 117.228 177.792 118.346C177.792 119.438 176.934 120.4 175.66 120.4ZM185.249 136.26C183.273 136.26 181.635 135.74 180.569 134.96L180.413 131.398H181.375C181.947 133.66 183.273 135.35 185.275 135.35C186.679 135.35 187.745 134.674 187.745 133.244C187.745 131.84 186.783 131.294 184.729 130.566C181.947 129.604 180.517 128.512 180.517 126.094C180.517 123.494 182.493 121.96 185.353 121.96C187.043 121.96 188.499 122.402 189.591 123.104V126.25H188.707C188.291 124.378 187.199 122.87 185.353 122.87C184.027 122.87 183.247 123.65 183.247 124.768C183.247 125.964 184.053 126.536 186.055 127.264C188.889 128.252 190.527 129.318 190.527 131.866C190.527 134.648 188.447 136.26 185.249 136.26ZM197.081 136.26C195.105 136.26 193.467 135.74 192.401 134.96L192.245 131.398H193.207C193.779 133.66 195.105 135.35 197.107 135.35C198.511 135.35 199.577 134.674 199.577 133.244C199.577 131.84 198.615 131.294 196.561 130.566C193.779 129.604 192.349 128.512 192.349 126.094C192.349 123.494 194.325 121.96 197.185 121.96C198.875 121.96 200.331 122.402 201.423 123.104V126.25H200.539C200.123 124.378 199.031 122.87 197.185 122.87C195.859 122.87 195.079 123.65 195.079 124.768C195.079 125.964 195.885 126.536 197.887 127.264C200.721 128.252 202.359 129.318 202.359 131.866C202.359 134.648 200.279 136.26 197.081 136.26ZM208.965 121.96V133.998C208.965 134.908 209.381 135.064 210.603 135.142V136H203.739V135.142C204.961 135.064 205.377 134.908 205.377 133.998V124.794L203.817 123.884V123.39L208.393 121.96H208.965ZM207.119 120.4C205.871 120.4 205.013 119.438 205.013 118.346C205.013 117.228 205.871 116.292 207.119 116.292C208.393 116.292 209.251 117.228 209.251 118.346C209.251 119.438 208.393 120.4 207.119 120.4ZM218.372 135.324C220.296 135.324 221.154 133.114 221.154 129.708C221.154 125.86 220.27 122.922 218.19 122.922C216.266 122.922 215.382 125.106 215.382 128.512C215.382 132.36 216.292 135.324 218.372 135.324ZM218.242 136.26C214.264 136.26 211.56 133.556 211.56 129.422C211.56 125.002 214.446 121.96 218.32 121.96C222.298 121.96 225.002 124.716 225.002 128.824C225.002 133.244 222.116 136.26 218.242 136.26ZM236.248 133.998V126.406C236.248 124.898 235.676 124.144 234.246 124.144C233.154 124.144 232.166 124.638 231.334 125.21V133.998C231.334 134.908 231.724 135.064 232.92 135.142V136H226.108V135.142C227.33 135.064 227.746 134.908 227.746 133.998V124.794L226.186 123.884V123.39L230.84 121.96H231.438L231.334 124.508C232.452 123.208 233.934 121.96 236.144 121.96C238.588 121.96 239.862 123.364 239.862 126.198V133.998C239.862 134.908 240.278 135.064 241.474 135.142V136H234.662V135.142C235.858 135.064 236.248 134.908 236.248 133.998Z" fill="black"/>
<path d="M65.8776 181L63.7496 173.118L61.6076 181H60.0256L57.4076 170.948H58.9196L60.8516 178.69L62.9656 170.948H64.5616L66.6476 178.704L68.5796 170.948H70.0916L67.4736 181H65.8776ZM73.7787 181.14C71.6367 181.14 70.1947 179.586 70.1947 177.248C70.1947 175.05 71.6927 173.44 73.7367 173.44C75.9487 173.44 77.4187 175.232 77.1667 177.64H71.6367C71.7487 179.152 72.5047 180.034 73.7507 180.034C74.8007 180.034 75.5287 179.46 75.7667 178.494H77.1667C76.8027 180.146 75.5287 181.14 73.7787 181.14ZM73.7087 174.504C72.5747 174.504 71.8047 175.316 71.6507 176.702H75.6687C75.5987 175.33 74.8567 174.504 73.7087 174.504ZM84.5638 183.856C82.6178 183.856 81.3578 182.82 81.2738 181.14H82.6458C82.7298 182.176 83.4018 182.736 84.5498 182.736C85.8238 182.736 86.4958 182.05 86.4958 180.776V179.432C86.0758 180.328 85.2358 180.846 84.2278 180.846C82.3798 180.846 81.0638 179.32 81.0638 177.136C81.0638 174.924 82.3238 173.44 84.1858 173.44C85.2498 173.44 86.0898 173.958 86.5938 174.896V173.58H87.9098V180.748C87.9098 182.694 86.6638 183.856 84.5638 183.856ZM82.4918 177.136C82.4918 178.676 83.2478 179.614 84.4798 179.614C85.6838 179.614 86.4958 178.648 86.4958 177.178C86.4958 175.638 85.6978 174.658 84.4798 174.658C83.2618 174.658 82.4918 175.61 82.4918 177.136ZM94.5013 177.948V173.58H95.9153V181H94.5993V179.824C94.2073 180.594 93.3393 181.14 92.3313 181.14C90.8333 181.14 89.7973 180.258 89.7973 178.354V173.58H91.2113V178.074C91.2113 179.362 91.8553 179.894 92.7793 179.894C93.7313 179.894 94.5013 179.11 94.5013 177.948ZM99.601 171.858C99.601 172.39 99.181 172.796 98.579 172.796C97.977 172.796 97.543 172.39 97.543 171.858C97.543 171.312 97.977 170.92 98.579 170.92C99.181 170.92 99.601 171.312 99.601 171.858ZM99.293 181H97.879V173.58H99.293V181ZM100.724 177.29C100.724 175.036 102.012 173.44 104.014 173.44C105.008 173.44 105.876 173.944 106.394 174.854V170.948H107.808V181H106.492V179.67C105.96 180.608 105.064 181.14 104.014 181.14C102.012 181.14 100.724 179.516 100.724 177.29ZM102.194 177.29C102.194 178.942 103.062 179.88 104.294 179.88C105.498 179.88 106.394 178.9 106.394 177.262C106.394 175.596 105.47 174.686 104.294 174.686C103.062 174.686 102.194 175.61 102.194 177.29ZM112.826 181.14C110.684 181.14 109.242 179.586 109.242 177.248C109.242 175.05 110.74 173.44 112.784 173.44C114.996 173.44 116.466 175.232 116.214 177.64H110.684C110.796 179.152 111.552 180.034 112.798 180.034C113.848 180.034 114.576 179.46 114.814 178.494H116.214C115.85 180.146 114.576 181.14 112.826 181.14ZM112.756 174.504C111.622 174.504 110.852 175.316 110.698 176.702H114.716C114.646 175.33 113.904 174.504 112.756 174.504ZM126.803 173.58L123.093 183.702H121.553L122.617 180.902L119.691 173.58H121.217L123.373 179.236L125.375 173.58H126.803ZM130.682 181.14C128.582 181.14 127.042 179.488 127.042 177.29C127.042 175.092 128.582 173.44 130.682 173.44C132.782 173.44 134.322 175.092 134.322 177.29C134.322 179.488 132.782 181.14 130.682 181.14ZM130.682 179.894C131.9 179.894 132.866 178.914 132.866 177.29C132.866 175.666 131.9 174.7 130.682 174.7C129.464 174.7 128.512 175.666 128.512 177.29C128.512 178.914 129.464 179.894 130.682 179.894ZM140.398 177.948V173.58H141.812V181H140.496V179.824C140.104 180.594 139.236 181.14 138.228 181.14C136.73 181.14 135.694 180.258 135.694 178.354V173.58H137.108V178.074C137.108 179.362 137.752 179.894 138.676 179.894C139.628 179.894 140.398 179.11 140.398 177.948ZM149.753 181.14C147.611 181.14 146.169 179.586 146.169 177.248C146.169 175.05 147.667 173.44 149.711 173.44C151.923 173.44 153.393 175.232 153.141 177.64H147.611C147.723 179.152 148.479 180.034 149.725 180.034C150.775 180.034 151.503 179.46 151.741 178.494H153.141C152.777 180.146 151.503 181.14 149.753 181.14ZM149.683 174.504C148.549 174.504 147.779 175.316 147.625 176.702H151.643C151.573 175.33 150.831 174.504 149.683 174.504ZM160.572 173.58L157.786 181H156.246L153.46 173.58H154.986L157.044 179.376L159.13 173.58H160.572ZM164.396 181.14C162.254 181.14 160.812 179.586 160.812 177.248C160.812 175.05 162.31 173.44 164.354 173.44C166.566 173.44 168.036 175.232 167.784 177.64H162.254C162.366 179.152 163.122 180.034 164.368 180.034C165.418 180.034 166.146 179.46 166.384 178.494H167.784C167.42 180.146 166.146 181.14 164.396 181.14ZM164.326 174.504C163.192 174.504 162.422 175.316 162.268 176.702H166.286C166.216 175.33 165.474 174.504 164.326 174.504ZM170.701 177.206V181H169.287V173.58H170.603V175.148C171.121 174.126 172.241 173.482 173.459 173.482V174.952C171.863 174.868 170.701 175.568 170.701 177.206ZM180.875 173.58L177.165 183.702H175.625L176.689 180.902L173.763 173.58H175.289L177.445 179.236L179.447 173.58H180.875ZM190.685 178.788C190.685 180.244 189.551 181.14 187.577 181.14C185.617 181.14 184.455 180.174 184.315 178.578H185.673C185.729 179.502 186.471 180.076 187.605 180.076C188.599 180.076 189.257 179.726 189.257 179.026C189.257 178.41 188.879 178.144 187.955 177.962L186.751 177.738C185.379 177.472 184.609 176.772 184.609 175.652C184.609 174.35 185.743 173.44 187.465 173.44C189.243 173.44 190.447 174.392 190.573 175.918H189.215C189.131 175.022 188.473 174.504 187.479 174.504C186.583 174.504 185.981 174.882 185.981 175.526C185.981 176.128 186.359 176.408 187.255 176.576L188.515 176.814C189.985 177.08 190.685 177.724 190.685 178.788ZM196.319 179.628V180.874C195.885 181.07 195.507 181.14 195.059 181.14C193.687 181.14 192.735 180.398 192.735 178.76V174.784H191.097V173.58H192.735V171.382H194.149V173.58H196.389V174.784H194.149V178.438C194.149 179.46 194.639 179.824 195.395 179.824C195.731 179.824 196.025 179.768 196.319 179.628ZM200.585 181.14C198.443 181.14 197.001 179.586 197.001 177.248C197.001 175.05 198.499 173.44 200.543 173.44C202.755 173.44 204.225 175.232 203.973 177.64H198.443C198.555 179.152 199.311 180.034 200.557 180.034C201.607 180.034 202.335 179.46 202.573 178.494H203.973C203.609 180.146 202.335 181.14 200.585 181.14ZM200.515 174.504C199.381 174.504 198.611 175.316 198.457 176.702H202.475C202.405 175.33 201.663 174.504 200.515 174.504ZM212.561 177.29C212.561 179.53 211.273 181.14 209.285 181.14C208.277 181.14 207.423 180.636 206.891 179.74V183.702H205.477V173.58H206.793V174.938C207.325 173.986 208.235 173.44 209.285 173.44C211.259 173.44 212.561 175.05 212.561 177.29ZM211.091 177.29C211.091 175.624 210.209 174.686 208.991 174.686C207.815 174.686 206.891 175.624 206.891 177.29C206.891 178.928 207.801 179.88 208.991 179.88C210.209 179.88 211.091 178.956 211.091 177.29ZM220.028 181.14C217.928 181.14 216.388 179.488 216.388 177.29C216.388 175.092 217.928 173.44 220.028 173.44C222.128 173.44 223.668 175.092 223.668 177.29C223.668 179.488 222.128 181.14 220.028 181.14ZM220.028 179.894C221.246 179.894 222.212 178.914 222.212 177.29C222.212 175.666 221.246 174.7 220.028 174.7C218.81 174.7 217.858 175.666 217.858 177.29C217.858 178.914 218.81 179.894 220.028 179.894ZM226.99 181H225.576V174.784H223.938V173.58H225.576V173.034C225.576 171.606 226.346 170.822 227.746 170.822C228.166 170.822 228.502 170.892 228.782 171.004V172.152C228.558 172.054 228.306 172.026 228.054 172.026C227.382 172.026 226.99 172.334 226.99 173.048V173.58H229.062V174.784H226.99V181ZM237.253 179.628V180.874C236.819 181.07 236.441 181.14 235.993 181.14C234.621 181.14 233.669 180.398 233.669 178.76V174.784H232.031V173.58H233.669V171.382H235.083V173.58H237.323V174.784H235.083V178.438C235.083 179.46 235.573 179.824 236.329 179.824C236.665 179.824 236.959 179.768 237.253 179.628ZM240.086 176.814V181H238.672V170.948H240.086V174.77C240.576 173.972 241.332 173.44 242.354 173.44C243.88 173.44 244.888 174.42 244.888 176.198V181H243.474V176.674C243.474 175.4 242.914 174.686 241.864 174.686C240.898 174.686 240.086 175.498 240.086 176.814ZM249.818 181.14C247.676 181.14 246.234 179.586 246.234 177.248C246.234 175.05 247.732 173.44 249.776 173.44C251.988 173.44 253.458 175.232 253.206 177.64H247.676C247.788 179.152 248.544 180.034 249.79 180.034C250.84 180.034 251.568 179.46 251.806 178.494H253.206C252.842 180.146 251.568 181.14 249.818 181.14ZM249.748 174.504C248.614 174.504 247.844 175.316 247.69 176.702H251.708C251.638 175.33 250.896 174.504 249.748 174.504ZM263.767 181L262.087 175.484L260.393 181H258.965L256.823 173.58H258.209L259.707 178.984L261.387 173.58H262.787L264.439 178.998L265.937 173.58H267.337L265.181 181H263.767ZM272.752 181V179.852C272.29 180.678 271.464 181.14 270.372 181.14C268.832 181.14 267.824 180.258 267.824 178.9C267.824 177.444 268.986 176.688 271.198 176.688C271.632 176.688 271.982 176.702 272.584 176.772V176.226C272.584 175.162 272.01 174.56 271.03 174.56C269.994 174.56 269.364 175.176 269.322 176.212H268.034C268.104 174.546 269.294 173.44 271.03 173.44C272.864 173.44 273.928 174.476 273.928 176.24V181H272.752ZM269.168 178.858C269.168 179.628 269.742 180.132 270.652 180.132C271.842 180.132 272.584 179.39 272.584 178.256V177.654C272.038 177.584 271.646 177.57 271.282 177.57C269.868 177.57 269.168 177.99 269.168 178.858ZM281.746 173.58L278.036 183.702H276.496L277.56 180.902L274.634 173.58H276.16L278.316 179.236L280.318 173.58H281.746ZM75.2249 202L73.5449 196.484L71.8509 202H70.4229L68.2809 194.58H69.6669L71.1649 199.984L72.8449 194.58H74.2449L75.8969 199.998L77.3949 194.58H78.7949L76.6389 202H75.2249ZM81.6704 192.858C81.6704 193.39 81.2504 193.796 80.6484 193.796C80.0464 193.796 79.6124 193.39 79.6124 192.858C79.6124 192.312 80.0464 191.92 80.6484 191.92C81.2504 191.92 81.6704 192.312 81.6704 192.858ZM81.3624 202H79.9484V194.58H81.3624V202ZM87.5113 200.628V201.874C87.0773 202.07 86.6993 202.14 86.2513 202.14C84.8793 202.14 83.9273 201.398 83.9273 199.76V195.784H82.2893V194.58H83.9273V192.382H85.3413V194.58H87.5813V195.784H85.3413V199.438C85.3413 200.46 85.8313 200.824 86.5873 200.824C86.9233 200.824 87.2173 200.768 87.5113 200.628ZM90.3448 197.814V202H88.9308V191.948H90.3448V195.77C90.8348 194.972 91.5908 194.44 92.6128 194.44C94.1388 194.44 95.1468 195.42 95.1468 197.198V202H93.7328V197.674C93.7328 196.4 93.1728 195.686 92.1228 195.686C91.1568 195.686 90.3448 196.498 90.3448 197.814ZM105.83 199.788C105.83 201.244 104.696 202.14 102.722 202.14C100.762 202.14 99.6003 201.174 99.4603 199.578H100.818C100.874 200.502 101.616 201.076 102.75 201.076C103.744 201.076 104.402 200.726 104.402 200.026C104.402 199.41 104.024 199.144 103.1 198.962L101.896 198.738C100.524 198.472 99.7543 197.772 99.7543 196.652C99.7543 195.35 100.888 194.44 102.61 194.44C104.388 194.44 105.592 195.392 105.718 196.918H104.36C104.276 196.022 103.618 195.504 102.624 195.504C101.728 195.504 101.126 195.882 101.126 196.526C101.126 197.128 101.504 197.408 102.4 197.576L103.66 197.814C105.13 198.08 105.83 198.724 105.83 199.788ZM111.464 200.628V201.874C111.03 202.07 110.652 202.14 110.204 202.14C108.832 202.14 107.88 201.398 107.88 199.76V195.784H106.242V194.58H107.88V192.382H109.294V194.58H111.534V195.784H109.294V199.438C109.294 200.46 109.784 200.824 110.54 200.824C110.876 200.824 111.17 200.768 111.464 200.628ZM114.298 198.206V202H112.884V194.58H114.2V196.148C114.718 195.126 115.838 194.482 117.056 194.482V195.952C115.46 195.868 114.298 196.568 114.298 198.206ZM122.669 202V200.852C122.207 201.678 121.381 202.14 120.289 202.14C118.749 202.14 117.741 201.258 117.741 199.9C117.741 198.444 118.903 197.688 121.115 197.688C121.549 197.688 121.899 197.702 122.501 197.772V197.226C122.501 196.162 121.927 195.56 120.947 195.56C119.911 195.56 119.281 196.176 119.239 197.212H117.951C118.021 195.546 119.211 194.44 120.947 194.44C122.781 194.44 123.845 195.476 123.845 197.24V202H122.669ZM119.085 199.858C119.085 200.628 119.659 201.132 120.569 201.132C121.759 201.132 122.501 200.39 122.501 199.256V198.654C121.955 198.584 121.563 198.57 121.199 198.57C119.785 198.57 119.085 198.99 119.085 199.858ZM129.853 200.628V201.874C129.419 202.07 129.041 202.14 128.593 202.14C127.221 202.14 126.269 201.398 126.269 199.76V195.784H124.631V194.58H126.269V192.382H127.683V194.58H129.923V195.784H127.683V199.438C127.683 200.46 128.173 200.824 128.929 200.824C129.265 200.824 129.559 200.768 129.853 200.628ZM134.12 202.14C131.978 202.14 130.536 200.586 130.536 198.248C130.536 196.05 132.034 194.44 134.078 194.44C136.29 194.44 137.76 196.232 137.508 198.64H131.978C132.09 200.152 132.846 201.034 134.092 201.034C135.142 201.034 135.87 200.46 136.108 199.494H137.508C137.144 201.146 135.87 202.14 134.12 202.14ZM134.05 195.504C132.916 195.504 132.146 196.316 131.992 197.702H136.01C135.94 196.33 135.198 195.504 134.05 195.504ZM141.842 204.856C139.896 204.856 138.636 203.82 138.552 202.14H139.924C140.008 203.176 140.68 203.736 141.828 203.736C143.102 203.736 143.774 203.05 143.774 201.776V200.432C143.354 201.328 142.514 201.846 141.506 201.846C139.658 201.846 138.342 200.32 138.342 198.136C138.342 195.924 139.602 194.44 141.464 194.44C142.528 194.44 143.368 194.958 143.872 195.896V194.58H145.188V201.748C145.188 203.694 143.942 204.856 141.842 204.856ZM139.77 198.136C139.77 199.676 140.526 200.614 141.758 200.614C142.962 200.614 143.774 199.648 143.774 198.178C143.774 196.638 142.976 195.658 141.758 195.658C140.54 195.658 139.77 196.61 139.77 198.136ZM148.868 192.858C148.868 193.39 148.448 193.796 147.846 193.796C147.244 193.796 146.81 193.39 146.81 192.858C146.81 192.312 147.244 191.92 147.846 191.92C148.448 191.92 148.868 192.312 148.868 192.858ZM148.56 202H147.146V194.58H148.56V202ZM153.449 202.154C151.419 202.154 149.991 200.558 149.991 198.29C149.991 196.05 151.447 194.44 153.449 194.44C155.283 194.44 156.613 195.658 156.879 197.59H155.395C155.241 196.4 154.499 195.686 153.463 195.686C152.245 195.686 151.447 196.722 151.447 198.29C151.447 199.872 152.245 200.894 153.463 200.894C154.513 200.894 155.241 200.194 155.409 198.99H156.879C156.627 200.95 155.311 202.154 153.449 202.154ZM162.88 202H161.34V191.948H162.88V202ZM169.048 202H167.508V193.334H164.232V191.948H172.324V193.334H169.048V202ZM179.425 202.154C177.395 202.154 175.967 200.558 175.967 198.29C175.967 196.05 177.423 194.44 179.425 194.44C181.259 194.44 182.589 195.658 182.855 197.59H181.371C181.217 196.4 180.475 195.686 179.439 195.686C178.221 195.686 177.423 196.722 177.423 198.29C177.423 199.872 178.221 200.894 179.439 200.894C180.489 200.894 181.217 200.194 181.385 198.99H182.855C182.603 200.95 181.287 202.154 179.425 202.154ZM187.318 202.14C185.218 202.14 183.678 200.488 183.678 198.29C183.678 196.092 185.218 194.44 187.318 194.44C189.418 194.44 190.958 196.092 190.958 198.29C190.958 200.488 189.418 202.14 187.318 202.14ZM187.318 200.894C188.536 200.894 189.502 199.914 189.502 198.29C189.502 196.666 188.536 195.7 187.318 195.7C186.1 195.7 185.148 196.666 185.148 198.29C185.148 199.914 186.1 200.894 187.318 200.894ZM193.814 197.814V202H192.4V194.58H193.716V195.812C194.22 194.986 195.06 194.44 196.082 194.44C197.608 194.44 198.616 195.42 198.616 197.198V202H197.202V197.674C197.202 196.4 196.642 195.686 195.592 195.686C194.626 195.686 193.814 196.498 193.814 197.814ZM206.373 199.788C206.373 201.244 205.239 202.14 203.265 202.14C201.305 202.14 200.143 201.174 200.003 199.578H201.361C201.417 200.502 202.159 201.076 203.293 201.076C204.287 201.076 204.945 200.726 204.945 200.026C204.945 199.41 204.567 199.144 203.643 198.962L202.439 198.738C201.067 198.472 200.297 197.772 200.297 196.652C200.297 195.35 201.431 194.44 203.153 194.44C204.931 194.44 206.135 195.392 206.261 196.918H204.903C204.819 196.022 204.161 195.504 203.167 195.504C202.271 195.504 201.669 195.882 201.669 196.526C201.669 197.128 202.047 197.408 202.943 197.576L204.203 197.814C205.673 198.08 206.373 198.724 206.373 199.788ZM212.551 198.948V194.58H213.965V202H212.649V200.824C212.257 201.594 211.389 202.14 210.381 202.14C208.883 202.14 207.847 201.258 207.847 199.354V194.58H209.261V199.074C209.261 200.362 209.905 200.894 210.829 200.894C211.781 200.894 212.551 200.11 212.551 198.948ZM217.357 202H215.929V191.948H217.357V202ZM223.505 200.628V201.874C223.071 202.07 222.693 202.14 222.245 202.14C220.873 202.14 219.921 201.398 219.921 199.76V195.784H218.283V194.58H219.921V192.382H221.335V194.58H223.575V195.784H221.335V199.438C221.335 200.46 221.825 200.824 222.581 200.824C222.917 200.824 223.211 200.768 223.505 200.628ZM226.647 192.858C226.647 193.39 226.227 193.796 225.625 193.796C225.023 193.796 224.589 193.39 224.589 192.858C224.589 192.312 225.023 191.92 225.625 191.92C226.227 191.92 226.647 192.312 226.647 192.858ZM226.339 202H224.925V194.58H226.339V202ZM229.716 197.814V202H228.302V194.58H229.618V195.812C230.122 194.986 230.962 194.44 231.984 194.44C233.51 194.44 234.518 195.42 234.518 197.198V202H233.104V197.674C233.104 196.4 232.544 195.686 231.494 195.686C230.528 195.686 229.716 196.498 229.716 197.814ZM239.364 204.856C237.418 204.856 236.158 203.82 236.074 202.14H237.446C237.53 203.176 238.202 203.736 239.35 203.736C240.624 203.736 241.296 203.05 241.296 201.776V200.432C240.876 201.328 240.036 201.846 239.028 201.846C237.18 201.846 235.864 200.32 235.864 198.136C235.864 195.924 237.124 194.44 238.986 194.44C240.05 194.44 240.89 194.958 241.394 195.896V194.58H242.71V201.748C242.71 203.694 241.464 204.856 239.364 204.856ZM237.292 198.136C237.292 199.676 238.048 200.614 239.28 200.614C240.484 200.614 241.296 199.648 241.296 198.178C241.296 196.638 240.498 195.658 239.28 195.658C238.062 195.658 237.292 196.61 237.292 198.136ZM252.087 202V200.852C251.625 201.678 250.799 202.14 249.707 202.14C248.167 202.14 247.159 201.258 247.159 199.9C247.159 198.444 248.321 197.688 250.533 197.688C250.967 197.688 251.317 197.702 251.919 197.772V197.226C251.919 196.162 251.345 195.56 250.365 195.56C249.329 195.56 248.699 196.176 248.657 197.212H247.369C247.439 195.546 248.629 194.44 250.365 194.44C252.199 194.44 253.263 195.476 253.263 197.24V202H252.087ZM248.503 199.858C248.503 200.628 249.077 201.132 249.987 201.132C251.177 201.132 251.919 200.39 251.919 199.256V198.654C251.373 198.584 250.981 198.57 250.617 198.57C249.203 198.57 248.503 198.99 248.503 199.858ZM256.567 197.814V202H255.153V194.58H256.469V195.812C256.973 194.986 257.813 194.44 258.835 194.44C260.361 194.44 261.369 195.42 261.369 197.198V202H259.955V197.674C259.955 196.4 259.395 195.686 258.345 195.686C257.379 195.686 256.567 196.498 256.567 197.814ZM262.715 198.29C262.715 196.036 264.003 194.44 266.005 194.44C266.999 194.44 267.867 194.944 268.385 195.854V191.948H269.799V202H268.483V200.67C267.951 201.608 267.055 202.14 266.005 202.14C264.003 202.14 262.715 200.516 262.715 198.29ZM264.185 198.29C264.185 199.942 265.053 200.88 266.285 200.88C267.489 200.88 268.385 199.9 268.385 198.262C268.385 196.596 267.461 195.686 266.285 195.686C265.053 195.686 264.185 196.61 264.185 198.29ZM89.472 225.856C87.526 225.856 86.266 224.82 86.182 223.14H87.554C87.638 224.176 88.31 224.736 89.458 224.736C90.732 224.736 91.404 224.05 91.404 222.776V221.432C90.984 222.328 90.144 222.846 89.136 222.846C87.288 222.846 85.972 221.32 85.972 219.136C85.972 216.924 87.232 215.44 89.094 215.44C90.158 215.44 90.998 215.958 91.502 216.896V215.58H92.818V222.748C92.818 224.694 91.572 225.856 89.472 225.856ZM87.4 219.136C87.4 220.676 88.156 221.614 89.388 221.614C90.592 221.614 91.404 220.648 91.404 219.178C91.404 217.638 90.606 216.658 89.388 216.658C88.17 216.658 87.4 217.61 87.4 219.136ZM99.2695 223V221.852C98.8075 222.678 97.9815 223.14 96.8895 223.14C95.3495 223.14 94.3415 222.258 94.3415 220.9C94.3415 219.444 95.5035 218.688 97.7155 218.688C98.1495 218.688 98.4995 218.702 99.1015 218.772V218.226C99.1015 217.162 98.5275 216.56 97.5475 216.56C96.5115 216.56 95.8815 217.176 95.8395 218.212H94.5515C94.6215 216.546 95.8115 215.44 97.5475 215.44C99.3815 215.44 100.446 216.476 100.446 218.24V223H99.2695ZM95.6855 220.858C95.6855 221.628 96.2595 222.132 97.1695 222.132C98.3595 222.132 99.1015 221.39 99.1015 220.256V219.654C98.5555 219.584 98.1635 219.57 97.7995 219.57C96.3855 219.57 95.6855 219.99 95.6855 220.858ZM103.75 223H102.336V215.58H103.652V216.812C104.156 215.958 104.954 215.44 105.976 215.44C107.068 215.44 107.894 216 108.23 216.98C108.748 216.028 109.602 215.44 110.736 215.44C112.262 215.44 113.242 216.434 113.242 218.198V223H111.828V218.646C111.828 217.414 111.282 216.686 110.246 216.686C109.28 216.686 108.496 217.498 108.496 218.744V223H107.082V218.646C107.082 217.414 106.536 216.686 105.5 216.686C104.52 216.686 103.75 217.498 103.75 218.744V223ZM118.185 223.14C116.043 223.14 114.601 221.586 114.601 219.248C114.601 217.05 116.099 215.44 118.143 215.44C120.355 215.44 121.825 217.232 121.573 219.64H116.043C116.155 221.152 116.911 222.034 118.157 222.034C119.207 222.034 119.935 221.46 120.173 220.494H121.573C121.209 222.146 119.935 223.14 118.185 223.14ZM118.115 216.504C116.981 216.504 116.211 217.316 116.057 218.702H120.075C120.005 217.33 119.263 216.504 118.115 216.504ZM127.005 219.78H122.651V218.506H127.005V219.78ZM131.471 223.154C129.441 223.154 128.013 221.558 128.013 219.29C128.013 217.05 129.469 215.44 131.471 215.44C133.305 215.44 134.635 216.658 134.901 218.59H133.417C133.263 217.4 132.521 216.686 131.485 216.686C130.267 216.686 129.469 217.722 129.469 219.29C129.469 220.872 130.267 221.894 131.485 221.894C132.535 221.894 133.263 221.194 133.431 219.99H134.901C134.649 221.95 133.333 223.154 131.471 223.154ZM137.738 218.814V223H136.324V212.948H137.738V216.77C138.228 215.972 138.984 215.44 140.006 215.44C141.532 215.44 142.54 216.42 142.54 218.198V223H141.126V218.674C141.126 217.4 140.566 216.686 139.516 216.686C138.55 216.686 137.738 217.498 137.738 218.814ZM148.912 223V221.852C148.45 222.678 147.624 223.14 146.532 223.14C144.992 223.14 143.984 222.258 143.984 220.9C143.984 219.444 145.146 218.688 147.358 218.688C147.792 218.688 148.142 218.702 148.744 218.772V218.226C148.744 217.162 148.17 216.56 147.19 216.56C146.154 216.56 145.524 217.176 145.482 218.212H144.194C144.264 216.546 145.454 215.44 147.19 215.44C149.024 215.44 150.088 216.476 150.088 218.24V223H148.912ZM145.328 220.858C145.328 221.628 145.902 222.132 146.812 222.132C148.002 222.132 148.744 221.39 148.744 220.256V219.654C148.198 219.584 147.806 219.57 147.442 219.57C146.028 219.57 145.328 219.99 145.328 220.858ZM153.393 218.814V223H151.979V215.58H153.295V216.812C153.799 215.986 154.639 215.44 155.661 215.44C157.187 215.44 158.195 216.42 158.195 218.198V223H156.781V218.674C156.781 217.4 156.221 216.686 155.171 216.686C154.205 216.686 153.393 217.498 153.393 218.814ZM163.04 225.856C161.094 225.856 159.834 224.82 159.75 223.14H161.122C161.206 224.176 161.878 224.736 163.026 224.736C164.3 224.736 164.972 224.05 164.972 222.776V221.432C164.552 222.328 163.712 222.846 162.704 222.846C160.856 222.846 159.54 221.32 159.54 219.136C159.54 216.924 160.8 215.44 162.662 215.44C163.726 215.44 164.566 215.958 165.07 216.896V215.58H166.386V222.748C166.386 224.694 165.14 225.856 163.04 225.856ZM160.968 219.136C160.968 220.676 161.724 221.614 162.956 221.614C164.16 221.614 164.972 220.648 164.972 219.178C164.972 217.638 164.174 216.658 162.956 216.658C161.738 216.658 160.968 217.61 160.968 219.136ZM170.066 213.858C170.066 214.39 169.646 214.796 169.044 214.796C168.442 214.796 168.008 214.39 168.008 213.858C168.008 213.312 168.442 212.92 169.044 212.92C169.646 212.92 170.066 213.312 170.066 213.858ZM169.758 223H168.344V215.58H169.758V223ZM173.135 218.814V223H171.721V215.58H173.037V216.812C173.541 215.986 174.381 215.44 175.403 215.44C176.929 215.44 177.937 216.42 177.937 218.198V223H176.523V218.674C176.523 217.4 175.963 216.686 174.913 216.686C173.947 216.686 173.135 217.498 173.135 218.814ZM182.783 225.856C180.837 225.856 179.577 224.82 179.493 223.14H180.865C180.949 224.176 181.621 224.736 182.769 224.736C184.043 224.736 184.715 224.05 184.715 222.776V221.432C184.295 222.328 183.455 222.846 182.447 222.846C180.599 222.846 179.283 221.32 179.283 219.136C179.283 216.924 180.543 215.44 182.405 215.44C183.469 215.44 184.309 215.958 184.813 216.896V215.58H186.129V222.748C186.129 224.694 184.883 225.856 182.783 225.856ZM180.711 219.136C180.711 220.676 181.467 221.614 182.699 221.614C183.903 221.614 184.715 220.648 184.715 219.178C184.715 217.638 183.917 216.658 182.699 216.658C181.481 216.658 180.711 217.61 180.711 219.136ZM196.892 220.788C196.892 222.244 195.758 223.14 193.784 223.14C191.824 223.14 190.662 222.174 190.522 220.578H191.88C191.936 221.502 192.678 222.076 193.812 222.076C194.806 222.076 195.464 221.726 195.464 221.026C195.464 220.41 195.086 220.144 194.162 219.962L192.958 219.738C191.586 219.472 190.816 218.772 190.816 217.652C190.816 216.35 191.95 215.44 193.672 215.44C195.45 215.44 196.654 216.392 196.78 217.918H195.422C195.338 217.022 194.68 216.504 193.686 216.504C192.79 216.504 192.188 216.882 192.188 217.526C192.188 218.128 192.566 218.408 193.462 218.576L194.722 218.814C196.192 219.08 196.892 219.724 196.892 220.788ZM201.544 223.14C199.444 223.14 197.904 221.488 197.904 219.29C197.904 217.092 199.444 215.44 201.544 215.44C203.644 215.44 205.184 217.092 205.184 219.29C205.184 221.488 203.644 223.14 201.544 223.14ZM201.544 221.894C202.762 221.894 203.728 220.914 203.728 219.29C203.728 217.666 202.762 216.7 201.544 216.7C200.326 216.7 199.374 217.666 199.374 219.29C199.374 220.914 200.326 221.894 201.544 221.894ZM208.053 223H206.625V212.948H208.053V223ZM214.65 219.948V215.58H216.064V223H214.748V221.824C214.356 222.594 213.488 223.14 212.48 223.14C210.982 223.14 209.946 222.258 209.946 220.354V215.58H211.36V220.074C211.36 221.362 212.004 221.894 212.928 221.894C213.88 221.894 214.65 221.11 214.65 219.948ZM222.213 221.628V222.874C221.779 223.07 221.401 223.14 220.953 223.14C219.581 223.14 218.629 222.398 218.629 220.76V216.784H216.991V215.58H218.629V213.382H220.043V215.58H222.283V216.784H220.043V220.438C220.043 221.46 220.533 221.824 221.289 221.824C221.625 221.824 221.919 221.768 222.213 221.628ZM225.355 213.858C225.355 214.39 224.935 214.796 224.333 214.796C223.731 214.796 223.297 214.39 223.297 213.858C223.297 213.312 223.731 212.92 224.333 212.92C224.935 212.92 225.355 213.312 225.355 213.858ZM225.047 223H223.633V215.58H225.047V223ZM230.118 223.14C228.018 223.14 226.478 221.488 226.478 219.29C226.478 217.092 228.018 215.44 230.118 215.44C232.218 215.44 233.758 217.092 233.758 219.29C233.758 221.488 232.218 223.14 230.118 223.14ZM230.118 221.894C231.336 221.894 232.302 220.914 232.302 219.29C232.302 217.666 231.336 216.7 230.118 216.7C228.9 216.7 227.948 217.666 227.948 219.29C227.948 220.914 228.9 221.894 230.118 221.894ZM236.613 218.814V223H235.199V215.58H236.515V216.812C237.019 215.986 237.859 215.44 238.881 215.44C240.407 215.44 241.415 216.42 241.415 218.198V223H240.001V218.674C240.001 217.4 239.441 216.686 238.391 216.686C237.425 216.686 236.613 217.498 236.613 218.814ZM249.173 220.788C249.173 222.244 248.039 223.14 246.065 223.14C244.105 223.14 242.943 222.174 242.803 220.578H244.161C244.217 221.502 244.959 222.076 246.093 222.076C247.087 222.076 247.745 221.726 247.745 221.026C247.745 220.41 247.367 220.144 246.443 219.962L245.239 219.738C243.867 219.472 243.097 218.772 243.097 217.652C243.097 216.35 244.231 215.44 245.953 215.44C247.731 215.44 248.935 216.392 249.061 217.918H247.703C247.619 217.022 246.961 216.504 245.967 216.504C245.071 216.504 244.469 216.882 244.469 217.526C244.469 218.128 244.847 218.408 245.743 218.576L247.003 218.814C248.473 219.08 249.173 219.724 249.173 220.788ZM252.635 221.992C252.635 222.622 252.201 223.07 251.557 223.07C250.927 223.07 250.479 222.622 250.479 221.992C250.479 221.334 250.927 220.886 251.557 220.886C252.201 220.886 252.635 221.334 252.635 221.992Z" fill="#3D3D3D"/>
<g filter="url(#filter1_ii_30_792)">
<circle cx="532.504" cy="168.555" r="168.555" fill="white"/>
</g>
<path d="M478.248 135.194C481.316 135.194 482.668 131.242 482.668 127.03C482.668 122.688 481.29 118.554 478.014 118.554C474.972 118.554 473.594 122.506 473.594 126.718C473.594 131.06 474.998 135.194 478.248 135.194ZM477.988 136.26C472.476 136.26 469.538 132.022 469.538 127.238C469.538 121.284 473.308 117.488 478.3 117.488C483.786 117.488 486.75 121.726 486.75 126.51C486.75 132.464 482.98 136.26 477.988 136.26ZM501.348 125.028V133.244C501.348 134.128 501.4 134.414 502.388 134.492L503.038 134.544V135.324L498.306 136.26H497.656L497.734 133.764C496.642 134.986 495.264 136.26 493.21 136.26C490.922 136.26 489.44 134.96 489.44 132.048V125.288C489.44 124.43 489.258 124.014 488.244 123.832L487.828 123.754V122.974L492.612 121.986H493.184L493.054 125.08V131.58C493.054 133.166 493.652 134.102 495.082 134.102C496.122 134.102 496.902 133.66 497.734 133.114V125.288C497.734 124.43 497.552 124.014 496.538 123.832L496.148 123.754V122.974L500.88 121.986H501.452L501.348 125.028ZM509.112 126.614V133.79C509.112 134.856 509.71 135.012 511.322 135.142V136H503.886V135.142C505.108 135.064 505.524 134.908 505.524 133.998V124.794L503.964 123.884V123.39L508.618 121.96H509.216L509.112 125.808C510.36 122.974 511.14 121.96 512.674 121.96C513.22 121.96 513.61 122.142 513.818 122.402V125.21H513.324C511.712 125.21 510.438 125.288 509.112 126.614ZM529.926 131.112L533.904 120.842C534.06 120.452 534.164 120.088 534.164 119.802C534.164 118.996 533.696 118.71 532.058 118.658V117.748H537.336V118.658C536.582 118.762 536.088 118.918 535.802 119.62L529.12 136.156H528.132L520.67 119.62C520.332 118.892 519.864 118.762 519.136 118.658V117.748H527.144V118.658C525.48 118.71 525.012 118.996 525.012 119.776C525.012 120.088 525.116 120.426 525.298 120.842L529.926 131.112ZM542.881 121.96V133.998C542.881 134.908 543.297 135.064 544.519 135.142V136H537.655V135.142C538.877 135.064 539.293 134.908 539.293 133.998V124.794L537.733 123.884V123.39L542.309 121.96H542.881ZM541.035 120.4C539.787 120.4 538.929 119.438 538.929 118.346C538.929 117.228 539.787 116.292 541.035 116.292C542.309 116.292 543.167 117.228 543.167 118.346C543.167 119.438 542.309 120.4 541.035 120.4ZM550.624 136.26C548.648 136.26 547.01 135.74 545.944 134.96L545.788 131.398H546.75C547.322 133.66 548.648 135.35 550.65 135.35C552.054 135.35 553.12 134.674 553.12 133.244C553.12 131.84 552.158 131.294 550.104 130.566C547.322 129.604 545.892 128.512 545.892 126.094C545.892 123.494 547.868 121.96 550.728 121.96C552.418 121.96 553.874 122.402 554.966 123.104V126.25H554.082C553.666 124.378 552.574 122.87 550.728 122.87C549.402 122.87 548.622 123.65 548.622 124.768C548.622 125.964 549.428 126.536 551.43 127.264C554.264 128.252 555.902 129.318 555.902 131.866C555.902 134.648 553.822 136.26 550.624 136.26ZM562.508 121.96V133.998C562.508 134.908 562.924 135.064 564.146 135.142V136H557.282V135.142C558.504 135.064 558.92 134.908 558.92 133.998V124.794L557.36 123.884V123.39L561.936 121.96H562.508ZM560.662 120.4C559.414 120.4 558.556 119.438 558.556 118.346C558.556 117.228 559.414 116.292 560.662 116.292C561.936 116.292 562.794 117.228 562.794 118.346C562.794 119.438 561.936 120.4 560.662 120.4ZM571.915 135.324C573.839 135.324 574.697 133.114 574.697 129.708C574.697 125.86 573.813 122.922 571.733 122.922C569.809 122.922 568.925 125.106 568.925 128.512C568.925 132.36 569.835 135.324 571.915 135.324ZM571.785 136.26C567.807 136.26 565.103 133.556 565.103 129.422C565.103 125.002 567.989 121.96 571.863 121.96C575.841 121.96 578.545 124.716 578.545 128.824C578.545 133.244 575.659 136.26 571.785 136.26ZM589.791 133.998V126.406C589.791 124.898 589.219 124.144 587.789 124.144C586.697 124.144 585.709 124.638 584.877 125.21V133.998C584.877 134.908 585.267 135.064 586.463 135.142V136H579.651V135.142C580.873 135.064 581.289 134.908 581.289 133.998V124.794L579.729 123.884V123.39L584.383 121.96H584.981L584.877 124.508C585.995 123.208 587.477 121.96 589.687 121.96C592.131 121.96 593.405 123.364 593.405 126.198V133.998C593.405 134.908 593.821 135.064 595.017 135.142V136H588.205V135.142C589.401 135.064 589.791 134.908 589.791 133.998Z" fill="black"/>
<path d="M435.002 181L432.874 173.118L430.732 181H429.15L426.532 170.948H428.044L429.976 178.69L432.09 170.948H433.686L435.772 178.704L437.704 170.948H439.216L436.598 181H435.002ZM442.903 181.14C440.761 181.14 439.319 179.586 439.319 177.248C439.319 175.05 440.817 173.44 442.861 173.44C445.073 173.44 446.543 175.232 446.291 177.64H440.761C440.873 179.152 441.629 180.034 442.875 180.034C443.925 180.034 444.653 179.46 444.891 178.494H446.291C445.927 180.146 444.653 181.14 442.903 181.14ZM442.833 174.504C441.699 174.504 440.929 175.316 440.775 176.702H444.793C444.723 175.33 443.981 174.504 442.833 174.504ZM452.134 176.814V181H450.72V170.948H452.134V174.77C452.624 173.972 453.38 173.44 454.402 173.44C455.928 173.44 456.936 174.42 456.936 176.198V181H455.522V176.674C455.522 175.4 454.962 174.686 453.912 174.686C452.946 174.686 452.134 175.498 452.134 176.814ZM463.308 181V179.852C462.846 180.678 462.02 181.14 460.928 181.14C459.388 181.14 458.38 180.258 458.38 178.9C458.38 177.444 459.542 176.688 461.754 176.688C462.188 176.688 462.538 176.702 463.14 176.772V176.226C463.14 175.162 462.566 174.56 461.586 174.56C460.55 174.56 459.92 175.176 459.878 176.212H458.59C458.66 174.546 459.85 173.44 461.586 173.44C463.42 173.44 464.484 174.476 464.484 176.24V181H463.308ZM459.724 178.858C459.724 179.628 460.298 180.132 461.208 180.132C462.398 180.132 463.14 179.39 463.14 178.256V177.654C462.594 177.584 462.202 177.57 461.838 177.57C460.424 177.57 459.724 177.99 459.724 178.858ZM467.788 177.206V181H466.374V173.58H467.69V175.148C468.208 174.126 469.328 173.482 470.546 173.482V174.952C468.95 174.868 467.788 175.568 467.788 177.206ZM473.079 176.814V181H471.665V173.58H472.981V174.812C473.485 173.986 474.325 173.44 475.347 173.44C476.873 173.44 477.881 174.42 477.881 176.198V181H476.467V176.674C476.467 175.4 475.907 174.686 474.857 174.686C473.891 174.686 473.079 175.498 473.079 176.814ZM482.811 181.14C480.669 181.14 479.227 179.586 479.227 177.248C479.227 175.05 480.725 173.44 482.769 173.44C484.981 173.44 486.451 175.232 486.199 177.64H480.669C480.781 179.152 481.537 180.034 482.783 180.034C483.833 180.034 484.561 179.46 484.799 178.494H486.199C485.835 180.146 484.561 181.14 482.811 181.14ZM482.741 174.504C481.607 174.504 480.837 175.316 480.683 176.702H484.701C484.631 175.33 483.889 174.504 482.741 174.504ZM493.582 178.788C493.582 180.244 492.448 181.14 490.474 181.14C488.514 181.14 487.352 180.174 487.212 178.578H488.57C488.626 179.502 489.368 180.076 490.502 180.076C491.496 180.076 492.154 179.726 492.154 179.026C492.154 178.41 491.776 178.144 490.852 177.962L489.648 177.738C488.276 177.472 487.506 176.772 487.506 175.652C487.506 174.35 488.64 173.44 490.362 173.44C492.14 173.44 493.344 174.392 493.47 175.918H492.112C492.028 175.022 491.37 174.504 490.376 174.504C489.48 174.504 488.878 174.882 488.878 175.526C488.878 176.128 489.256 176.408 490.152 176.576L491.412 176.814C492.882 177.08 493.582 177.724 493.582 178.788ZM501.006 178.788C501.006 180.244 499.872 181.14 497.898 181.14C495.938 181.14 494.776 180.174 494.636 178.578H495.994C496.05 179.502 496.792 180.076 497.926 180.076C498.92 180.076 499.578 179.726 499.578 179.026C499.578 178.41 499.2 178.144 498.276 177.962L497.072 177.738C495.7 177.472 494.93 176.772 494.93 175.652C494.93 174.35 496.064 173.44 497.786 173.44C499.564 173.44 500.768 174.392 500.894 175.918H499.536C499.452 175.022 498.794 174.504 497.8 174.504C496.904 174.504 496.302 174.882 496.302 175.526C496.302 176.128 496.68 176.408 497.576 176.576L498.836 176.814C500.306 177.08 501.006 177.724 501.006 178.788ZM508.402 181.154C506.372 181.154 504.944 179.558 504.944 177.29C504.944 175.05 506.4 173.44 508.402 173.44C510.236 173.44 511.566 174.658 511.832 176.59H510.348C510.194 175.4 509.452 174.686 508.416 174.686C507.198 174.686 506.4 175.722 506.4 177.29C506.4 178.872 507.198 179.894 508.416 179.894C509.466 179.894 510.194 179.194 510.362 177.99H511.832C511.58 179.95 510.264 181.154 508.402 181.154ZM517.889 177.948V173.58H519.303V181H517.987V179.824C517.595 180.594 516.727 181.14 515.719 181.14C514.221 181.14 513.185 180.258 513.185 178.354V173.58H514.599V178.074C514.599 179.362 515.243 179.894 516.167 179.894C517.119 179.894 517.889 179.11 517.889 177.948ZM525.453 179.628V180.874C525.019 181.07 524.641 181.14 524.193 181.14C522.821 181.14 521.869 180.398 521.869 178.76V174.784H520.231V173.58H521.869V171.382H523.283V173.58H525.523V174.784H523.283V178.438C523.283 179.46 523.773 179.824 524.529 179.824C524.865 179.824 525.159 179.768 525.453 179.628ZM531.304 179.628V180.874C530.87 181.07 530.492 181.14 530.044 181.14C528.672 181.14 527.72 180.398 527.72 178.76V174.784H526.082V173.58H527.72V171.382H529.134V173.58H531.374V174.784H529.134V178.438C529.134 179.46 529.624 179.824 530.38 179.824C530.716 179.824 531.01 179.768 531.304 179.628ZM534.446 171.858C534.446 172.39 534.026 172.796 533.424 172.796C532.822 172.796 532.388 172.39 532.388 171.858C532.388 171.312 532.822 170.92 533.424 170.92C534.026 170.92 534.446 171.312 534.446 171.858ZM534.138 181H532.724V173.58H534.138V181ZM537.515 176.814V181H536.101V173.58H537.417V174.812C537.921 173.986 538.761 173.44 539.783 173.44C541.309 173.44 542.317 174.42 542.317 176.198V181H540.903V176.674C540.903 175.4 540.343 174.686 539.293 174.686C538.327 174.686 537.515 175.498 537.515 176.814ZM547.163 183.856C545.217 183.856 543.957 182.82 543.873 181.14H545.245C545.329 182.176 546.001 182.736 547.149 182.736C548.423 182.736 549.095 182.05 549.095 180.776V179.432C548.675 180.328 547.835 180.846 546.827 180.846C544.979 180.846 543.663 179.32 543.663 177.136C543.663 174.924 544.923 173.44 546.785 173.44C547.849 173.44 548.689 173.958 549.193 174.896V173.58H550.509V180.748C550.509 182.694 549.263 183.856 547.163 183.856ZM545.091 177.136C545.091 178.676 545.847 179.614 547.079 179.614C548.283 179.614 549.095 178.648 549.095 177.178C549.095 175.638 548.297 174.658 547.079 174.658C545.861 174.658 545.091 175.61 545.091 177.136ZM556.19 177.78H551.836V176.506H556.19V177.78ZM560.782 181.14C558.64 181.14 557.198 179.586 557.198 177.248C557.198 175.05 558.696 173.44 560.74 173.44C562.952 173.44 564.422 175.232 564.17 177.64H558.64C558.752 179.152 559.508 180.034 560.754 180.034C561.804 180.034 562.532 179.46 562.77 178.494H564.17C563.806 180.146 562.532 181.14 560.782 181.14ZM560.712 174.504C559.578 174.504 558.808 175.316 558.654 176.702H562.672C562.602 175.33 561.86 174.504 560.712 174.504ZM565.004 177.29C565.004 175.036 566.292 173.44 568.294 173.44C569.288 173.44 570.156 173.944 570.674 174.854V170.948H572.088V181H570.772V179.67C570.24 180.608 569.344 181.14 568.294 181.14C566.292 181.14 565.004 179.516 565.004 177.29ZM566.474 177.29C566.474 178.942 567.342 179.88 568.574 179.88C569.778 179.88 570.674 178.9 570.674 177.262C570.674 175.596 569.75 174.686 568.574 174.686C567.342 174.686 566.474 175.61 566.474 177.29ZM577.022 183.856C575.076 183.856 573.816 182.82 573.732 181.14H575.104C575.188 182.176 575.86 182.736 577.008 182.736C578.282 182.736 578.954 182.05 578.954 180.776V179.432C578.534 180.328 577.694 180.846 576.686 180.846C574.838 180.846 573.522 179.32 573.522 177.136C573.522 174.924 574.782 173.44 576.644 173.44C577.708 173.44 578.548 173.958 579.052 174.896V173.58H580.368V180.748C580.368 182.694 579.122 183.856 577.022 183.856ZM574.95 177.136C574.95 178.676 575.706 179.614 576.938 179.614C578.142 179.614 578.954 178.648 578.954 177.178C578.954 175.638 578.156 174.658 576.938 174.658C575.72 174.658 574.95 175.61 574.95 177.136ZM585.377 181.14C583.235 181.14 581.793 179.586 581.793 177.248C581.793 175.05 583.291 173.44 585.335 173.44C587.547 173.44 589.017 175.232 588.765 177.64H583.235C583.347 179.152 584.103 180.034 585.349 180.034C586.399 180.034 587.127 179.46 587.365 178.494H588.765C588.401 180.146 587.127 181.14 585.377 181.14ZM585.307 174.504C584.173 174.504 583.403 175.316 583.249 176.702H587.267C587.197 175.33 586.455 174.504 585.307 174.504ZM597.381 179.628V180.874C596.947 181.07 596.569 181.14 596.121 181.14C594.749 181.14 593.797 180.398 593.797 178.76V174.784H592.159V173.58H593.797V171.382H595.211V173.58H597.451V174.784H595.211V178.438C595.211 179.46 595.701 179.824 596.457 179.824C596.793 179.824 597.087 179.768 597.381 179.628ZM601.647 181.14C599.505 181.14 598.063 179.586 598.063 177.248C598.063 175.05 599.561 173.44 601.605 173.44C603.817 173.44 605.287 175.232 605.035 177.64H599.505C599.617 179.152 600.373 180.034 601.619 180.034C602.669 180.034 603.397 179.46 603.635 178.494H605.035C604.671 180.146 603.397 181.14 601.647 181.14ZM601.577 174.504C600.443 174.504 599.673 175.316 599.519 176.702H603.537C603.467 175.33 602.725 174.504 601.577 174.504ZM609.328 181.154C607.298 181.154 605.87 179.558 605.87 177.29C605.87 175.05 607.326 173.44 609.328 173.44C611.162 173.44 612.492 174.658 612.758 176.59H611.274C611.12 175.4 610.378 174.686 609.342 174.686C608.124 174.686 607.326 175.722 607.326 177.29C607.326 178.872 608.124 179.894 609.342 179.894C610.392 179.894 611.12 179.194 611.288 177.99H612.758C612.506 179.95 611.19 181.154 609.328 181.154ZM615.595 176.814V181H614.181V170.948H615.595V174.77C616.085 173.972 616.841 173.44 617.863 173.44C619.389 173.44 620.397 174.42 620.397 176.198V181H618.983V176.674C618.983 175.4 618.423 174.686 617.373 174.686C616.407 174.686 615.595 175.498 615.595 176.814ZM629.386 179.628V180.874C628.952 181.07 628.574 181.14 628.126 181.14C626.754 181.14 625.802 180.398 625.802 178.76V174.784H624.164V173.58H625.802V171.382H627.216V173.58H629.456V174.784H627.216V178.438C627.216 179.46 627.706 179.824 628.462 179.824C628.798 179.824 629.092 179.768 629.386 179.628ZM633.709 181.14C631.609 181.14 630.069 179.488 630.069 177.29C630.069 175.092 631.609 173.44 633.709 173.44C635.809 173.44 637.349 175.092 637.349 177.29C637.349 179.488 635.809 181.14 633.709 181.14ZM633.709 179.894C634.927 179.894 635.893 178.914 635.893 177.29C635.893 175.666 634.927 174.7 633.709 174.7C632.491 174.7 631.539 175.666 631.539 177.29C631.539 178.914 632.491 179.894 633.709 179.894ZM432.826 200.628V201.874C432.392 202.07 432.014 202.14 431.566 202.14C430.194 202.14 429.242 201.398 429.242 199.76V195.784H427.604V194.58H429.242V192.382H430.656V194.58H432.896V195.784H430.656V199.438C430.656 200.46 431.146 200.824 431.902 200.824C432.238 200.824 432.532 200.768 432.826 200.628ZM435.659 198.206V202H434.245V194.58H435.561V196.148C436.079 195.126 437.199 194.482 438.417 194.482V195.952C436.821 195.868 435.659 196.568 435.659 198.206ZM444.03 202V200.852C443.568 201.678 442.742 202.14 441.65 202.14C440.11 202.14 439.102 201.258 439.102 199.9C439.102 198.444 440.264 197.688 442.476 197.688C442.91 197.688 443.26 197.702 443.862 197.772V197.226C443.862 196.162 443.288 195.56 442.308 195.56C441.272 195.56 440.642 196.176 440.6 197.212H439.312C439.382 195.546 440.572 194.44 442.308 194.44C444.142 194.44 445.206 195.476 445.206 197.24V202H444.03ZM440.446 199.858C440.446 200.628 441.02 201.132 441.93 201.132C443.12 201.132 443.862 200.39 443.862 199.256V198.654C443.316 198.584 442.924 198.57 442.56 198.57C441.146 198.57 440.446 198.99 440.446 199.858ZM448.511 197.814V202H447.097V194.58H448.413V195.812C448.917 194.986 449.757 194.44 450.779 194.44C452.305 194.44 453.313 195.42 453.313 197.198V202H451.899V197.674C451.899 196.4 451.339 195.686 450.289 195.686C449.323 195.686 448.511 196.498 448.511 197.814ZM461.071 199.788C461.071 201.244 459.937 202.14 457.963 202.14C456.003 202.14 454.841 201.174 454.701 199.578H456.059C456.115 200.502 456.857 201.076 457.991 201.076C458.985 201.076 459.643 200.726 459.643 200.026C459.643 199.41 459.265 199.144 458.341 198.962L457.137 198.738C455.765 198.472 454.995 197.772 454.995 196.652C454.995 195.35 456.129 194.44 457.851 194.44C459.629 194.44 460.833 195.392 460.959 196.918H459.601C459.517 196.022 458.859 195.504 457.865 195.504C456.969 195.504 456.367 195.882 456.367 196.526C456.367 197.128 456.745 197.408 457.641 197.576L458.901 197.814C460.371 198.08 461.071 198.724 461.071 199.788ZM464.605 202H463.191V195.784H461.553V194.58H463.191V194.034C463.191 192.606 463.961 191.822 465.361 191.822C465.781 191.822 466.117 191.892 466.397 192.004V193.152C466.173 193.054 465.921 193.026 465.669 193.026C464.997 193.026 464.605 193.334 464.605 194.048V194.58H466.677V195.784H464.605V202ZM470.658 202.14C468.558 202.14 467.018 200.488 467.018 198.29C467.018 196.092 468.558 194.44 470.658 194.44C472.758 194.44 474.298 196.092 474.298 198.29C474.298 200.488 472.758 202.14 470.658 202.14ZM470.658 200.894C471.876 200.894 472.842 199.914 472.842 198.29C472.842 196.666 471.876 195.7 470.658 195.7C469.44 195.7 468.488 196.666 468.488 198.29C468.488 199.914 469.44 200.894 470.658 200.894ZM477.154 198.206V202H475.74V194.58H477.056V196.148C477.574 195.126 478.694 194.482 479.912 194.482V195.952C478.316 195.868 477.154 196.568 477.154 198.206ZM482.445 202H481.031V194.58H482.347V195.812C482.851 194.958 483.649 194.44 484.671 194.44C485.763 194.44 486.589 195 486.925 195.98C487.443 195.028 488.297 194.44 489.431 194.44C490.957 194.44 491.937 195.434 491.937 197.198V202H490.523V197.646C490.523 196.414 489.977 195.686 488.941 195.686C487.975 195.686 487.191 196.498 487.191 197.744V202H485.777V197.646C485.777 196.414 485.231 195.686 484.195 195.686C483.215 195.686 482.445 196.498 482.445 197.744V202ZM502.913 194.58L499.203 204.702H497.663L498.727 201.902L495.801 194.58H497.327L499.483 200.236L501.485 194.58H502.913ZM506.793 202.14C504.693 202.14 503.153 200.488 503.153 198.29C503.153 196.092 504.693 194.44 506.793 194.44C508.893 194.44 510.433 196.092 510.433 198.29C510.433 200.488 508.893 202.14 506.793 202.14ZM506.793 200.894C508.011 200.894 508.977 199.914 508.977 198.29C508.977 196.666 508.011 195.7 506.793 195.7C505.575 195.7 504.623 196.666 504.623 198.29C504.623 199.914 505.575 200.894 506.793 200.894ZM516.508 198.948V194.58H517.922V202H516.606V200.824C516.214 201.594 515.346 202.14 514.338 202.14C512.84 202.14 511.804 201.258 511.804 199.354V194.58H513.218V199.074C513.218 200.362 513.862 200.894 514.786 200.894C515.738 200.894 516.508 200.11 516.508 198.948ZM521.3 198.206V202H519.886V194.58H521.202V196.148C521.72 195.126 522.84 194.482 524.058 194.482V195.952C522.462 195.868 521.3 196.568 521.3 198.206ZM535.187 198.29C535.187 200.516 533.899 202.14 531.897 202.14C530.847 202.14 529.951 201.608 529.419 200.67V202H528.103V191.948H529.517V195.854C530.035 194.944 530.889 194.44 531.897 194.44C533.885 194.44 535.187 196.036 535.187 198.29ZM533.717 198.29C533.717 196.61 532.835 195.686 531.617 195.686C530.441 195.686 529.517 196.596 529.517 198.262C529.517 199.9 530.413 200.88 531.617 200.88C532.835 200.88 533.717 199.942 533.717 198.29ZM541.254 198.948V194.58H542.668V202H541.352V200.824C540.96 201.594 540.092 202.14 539.084 202.14C537.586 202.14 536.55 201.258 536.55 199.354V194.58H537.964V199.074C537.964 200.362 538.608 200.894 539.532 200.894C540.484 200.894 541.254 200.11 541.254 198.948ZM550.512 199.788C550.512 201.244 549.378 202.14 547.404 202.14C545.444 202.14 544.282 201.174 544.142 199.578H545.5C545.556 200.502 546.298 201.076 547.432 201.076C548.426 201.076 549.084 200.726 549.084 200.026C549.084 199.41 548.706 199.144 547.782 198.962L546.578 198.738C545.206 198.472 544.436 197.772 544.436 196.652C544.436 195.35 545.57 194.44 547.292 194.44C549.07 194.44 550.274 195.392 550.4 196.918H549.042C548.958 196.022 548.3 195.504 547.306 195.504C546.41 195.504 545.808 195.882 545.808 196.526C545.808 197.128 546.186 197.408 547.082 197.576L548.342 197.814C549.812 198.08 550.512 198.724 550.512 199.788ZM553.778 192.858C553.778 193.39 553.358 193.796 552.756 193.796C552.154 193.796 551.72 193.39 551.72 192.858C551.72 192.312 552.154 191.92 552.756 191.92C553.358 191.92 553.778 192.312 553.778 192.858ZM553.47 202H552.056V194.58H553.47V202ZM556.847 197.814V202H555.433V194.58H556.749V195.812C557.253 194.986 558.093 194.44 559.115 194.44C560.641 194.44 561.649 195.42 561.649 197.198V202H560.235V197.674C560.235 196.4 559.675 195.686 558.625 195.686C557.659 195.686 556.847 196.498 556.847 197.814ZM566.579 202.14C564.437 202.14 562.995 200.586 562.995 198.248C562.995 196.05 564.493 194.44 566.537 194.44C568.749 194.44 570.219 196.232 569.967 198.64H564.437C564.549 200.152 565.305 201.034 566.551 201.034C567.601 201.034 568.329 200.46 568.567 199.494H569.967C569.603 201.146 568.329 202.14 566.579 202.14ZM566.509 195.504C565.375 195.504 564.605 196.316 564.451 197.702H568.469C568.399 196.33 567.657 195.504 566.509 195.504ZM577.35 199.788C577.35 201.244 576.216 202.14 574.242 202.14C572.282 202.14 571.12 201.174 570.98 199.578H572.338C572.394 200.502 573.136 201.076 574.27 201.076C575.264 201.076 575.922 200.726 575.922 200.026C575.922 199.41 575.544 199.144 574.62 198.962L573.416 198.738C572.044 198.472 571.274 197.772 571.274 196.652C571.274 195.35 572.408 194.44 574.13 194.44C575.908 194.44 577.112 195.392 577.238 196.918H575.88C575.796 196.022 575.138 195.504 574.144 195.504C573.248 195.504 572.646 195.882 572.646 196.526C572.646 197.128 573.024 197.408 573.92 197.576L575.18 197.814C576.65 198.08 577.35 198.724 577.35 199.788ZM584.774 199.788C584.774 201.244 583.64 202.14 581.666 202.14C579.706 202.14 578.544 201.174 578.404 199.578H579.762C579.818 200.502 580.56 201.076 581.694 201.076C582.688 201.076 583.346 200.726 583.346 200.026C583.346 199.41 582.968 199.144 582.044 198.962L580.84 198.738C579.468 198.472 578.698 197.772 578.698 196.652C578.698 195.35 579.832 194.44 581.554 194.44C583.332 194.44 584.536 195.392 584.662 196.918H583.304C583.22 196.022 582.562 195.504 581.568 195.504C580.672 195.504 580.07 195.882 580.07 196.526C580.07 197.128 580.448 197.408 581.344 197.576L582.604 197.814C584.074 198.08 584.774 198.724 584.774 199.788ZM588.236 201.398C588.236 202.728 587.186 203.764 585.646 203.792V202.994C586.556 202.966 587.172 202.476 587.256 201.79C587.13 201.832 587.046 201.846 586.948 201.846C586.416 201.846 586.024 201.412 586.024 200.894C586.024 200.292 586.472 199.9 587.046 199.9C587.816 199.9 588.236 200.46 588.236 201.398ZM595.848 204.856C593.902 204.856 592.642 203.82 592.558 202.14H593.93C594.014 203.176 594.686 203.736 595.834 203.736C597.108 203.736 597.78 203.05 597.78 201.776V200.432C597.36 201.328 596.52 201.846 595.512 201.846C593.664 201.846 592.348 200.32 592.348 198.136C592.348 195.924 593.608 194.44 595.47 194.44C596.534 194.44 597.374 194.958 597.878 195.896V194.58H599.194V201.748C599.194 203.694 597.948 204.856 595.848 204.856ZM593.776 198.136C593.776 199.676 594.532 200.614 595.764 200.614C596.968 200.614 597.78 199.648 597.78 198.178C597.78 196.638 596.982 195.658 595.764 195.658C594.546 195.658 593.776 196.61 593.776 198.136ZM605.786 198.948V194.58H607.2V202H605.884V200.824C605.492 201.594 604.624 202.14 603.616 202.14C602.118 202.14 601.082 201.258 601.082 199.354V194.58H602.496V199.074C602.496 200.362 603.14 200.894 604.064 200.894C605.016 200.894 605.786 200.11 605.786 198.948ZM610.885 192.858C610.885 193.39 610.465 193.796 609.863 193.796C609.261 193.796 608.827 193.39 608.827 192.858C608.827 192.312 609.261 191.92 609.863 191.92C610.465 191.92 610.885 192.312 610.885 192.858ZM610.577 202H609.163V194.58H610.577V202ZM612.008 198.29C612.008 196.036 613.296 194.44 615.298 194.44C616.292 194.44 617.16 194.944 617.678 195.854V191.948H619.092V202H617.776V200.67C617.244 201.608 616.348 202.14 615.298 202.14C613.296 202.14 612.008 200.516 612.008 198.29ZM613.478 198.29C613.478 199.942 614.346 200.88 615.578 200.88C616.782 200.88 617.678 199.9 617.678 198.262C617.678 196.596 616.754 195.686 615.578 195.686C614.346 195.686 613.478 196.61 613.478 198.29ZM624.11 202.14C621.968 202.14 620.526 200.586 620.526 198.248C620.526 196.05 622.024 194.44 624.068 194.44C626.28 194.44 627.75 196.232 627.498 198.64H621.968C622.08 200.152 622.836 201.034 624.082 201.034C625.132 201.034 625.86 200.46 626.098 199.494H627.498C627.134 201.146 625.86 202.14 624.11 202.14ZM624.04 195.504C622.906 195.504 622.136 196.316 621.982 197.702H626C625.93 196.33 625.188 195.504 624.04 195.504ZM628.333 198.29C628.333 196.036 629.621 194.44 631.623 194.44C632.617 194.44 633.485 194.944 634.003 195.854V191.948H635.417V202H634.101V200.67C633.569 201.608 632.673 202.14 631.623 202.14C629.621 202.14 628.333 200.516 628.333 198.29ZM629.803 198.29C629.803 199.942 630.671 200.88 631.903 200.88C633.107 200.88 634.003 199.9 634.003 198.262C634.003 196.596 633.079 195.686 631.903 195.686C630.671 195.686 629.803 196.61 629.803 198.29ZM460.005 219.29C460.005 221.516 458.717 223.14 456.715 223.14C455.665 223.14 454.769 222.608 454.237 221.67V223H452.921V212.948H454.335V216.854C454.853 215.944 455.707 215.44 456.715 215.44C458.703 215.44 460.005 217.036 460.005 219.29ZM458.535 219.29C458.535 217.61 457.653 216.686 456.435 216.686C455.259 216.686 454.335 217.596 454.335 219.262C454.335 220.9 455.231 221.88 456.435 221.88C457.653 221.88 458.535 220.942 458.535 219.29ZM467.366 215.58L463.656 225.702H462.116L463.18 222.902L460.254 215.58H461.78L463.936 221.236L465.938 215.58H467.366ZM474.348 223.14C472.206 223.14 470.764 221.586 470.764 219.248C470.764 217.05 472.262 215.44 474.306 215.44C476.518 215.44 477.988 217.232 477.736 219.64H472.206C472.318 221.152 473.074 222.034 474.32 222.034C475.37 222.034 476.098 221.46 476.336 220.494H477.736C477.372 222.146 476.098 223.14 474.348 223.14ZM474.278 216.504C473.144 216.504 472.374 217.316 472.22 218.702H476.238C476.168 217.33 475.426 216.504 474.278 216.504ZM479.695 223H478.099L480.731 219.206L478.267 215.58H479.905L481.739 218.38L483.573 215.58H485.099L482.663 219.248L485.267 223H483.643L481.655 220.046L479.695 223ZM493.488 219.29C493.488 221.53 492.2 223.14 490.212 223.14C489.204 223.14 488.35 222.636 487.818 221.74V225.702H486.404V215.58H487.72V216.938C488.252 215.986 489.162 215.44 490.212 215.44C492.186 215.44 493.488 217.05 493.488 219.29ZM492.018 219.29C492.018 217.624 491.136 216.686 489.918 216.686C488.742 216.686 487.818 217.624 487.818 219.29C487.818 220.928 488.728 221.88 489.918 221.88C491.136 221.88 492.018 220.956 492.018 219.29ZM497.973 223.14C495.831 223.14 494.389 221.586 494.389 219.248C494.389 217.05 495.887 215.44 497.931 215.44C500.143 215.44 501.613 217.232 501.361 219.64H495.831C495.943 221.152 496.699 222.034 497.945 222.034C498.995 222.034 499.723 221.46 499.961 220.494H501.361C500.997 222.146 499.723 223.14 497.973 223.14ZM497.903 216.504C496.769 216.504 495.999 217.316 495.845 218.702H499.863C499.793 217.33 499.051 216.504 497.903 216.504ZM504.279 219.206V223H502.865V215.58H504.181V217.148C504.699 216.126 505.819 215.482 507.037 215.482V216.952C505.441 216.868 504.279 217.568 504.279 219.206ZM512.793 221.628V222.874C512.359 223.07 511.981 223.14 511.533 223.14C510.161 223.14 509.209 222.398 509.209 220.76V216.784H507.571V215.58H509.209V213.382H510.623V215.58H512.863V216.784H510.623V220.438C510.623 221.46 511.113 221.824 511.869 221.824C512.205 221.824 512.499 221.768 512.793 221.628ZM518.79 223H517.25V212.948H518.79V223ZM524.959 223H523.419V214.334H520.143V212.948H528.235V214.334H524.959V223ZM535.335 223.154C533.305 223.154 531.877 221.558 531.877 219.29C531.877 217.05 533.333 215.44 535.335 215.44C537.169 215.44 538.499 216.658 538.765 218.59H537.281C537.127 217.4 536.385 216.686 535.349 216.686C534.131 216.686 533.333 217.722 533.333 219.29C533.333 220.872 534.131 221.894 535.349 221.894C536.399 221.894 537.127 221.194 537.295 219.99H538.765C538.513 221.95 537.197 223.154 535.335 223.154ZM543.228 223.14C541.128 223.14 539.588 221.488 539.588 219.29C539.588 217.092 541.128 215.44 543.228 215.44C545.328 215.44 546.868 217.092 546.868 219.29C546.868 221.488 545.328 223.14 543.228 223.14ZM543.228 221.894C544.446 221.894 545.412 220.914 545.412 219.29C545.412 217.666 544.446 216.7 543.228 216.7C542.01 216.7 541.058 217.666 541.058 219.29C541.058 220.914 542.01 221.894 543.228 221.894ZM549.724 218.814V223H548.31V215.58H549.626V216.812C550.13 215.986 550.97 215.44 551.992 215.44C553.518 215.44 554.526 216.42 554.526 218.198V223H553.112V218.674C553.112 217.4 552.552 216.686 551.502 216.686C550.536 216.686 549.724 217.498 549.724 218.814ZM562.284 220.788C562.284 222.244 561.15 223.14 559.176 223.14C557.216 223.14 556.054 222.174 555.914 220.578H557.272C557.328 221.502 558.07 222.076 559.204 222.076C560.198 222.076 560.856 221.726 560.856 221.026C560.856 220.41 560.478 220.144 559.554 219.962L558.35 219.738C556.978 219.472 556.208 218.772 556.208 217.652C556.208 216.35 557.342 215.44 559.064 215.44C560.842 215.44 562.046 216.392 562.172 217.918H560.814C560.73 217.022 560.072 216.504 559.078 216.504C558.182 216.504 557.58 216.882 557.58 217.526C557.58 218.128 557.958 218.408 558.854 218.576L560.114 218.814C561.584 219.08 562.284 219.724 562.284 220.788ZM568.461 219.948V215.58H569.875V223H568.559V221.824C568.167 222.594 567.299 223.14 566.291 223.14C564.793 223.14 563.757 222.258 563.757 220.354V215.58H565.171V220.074C565.171 221.362 565.815 221.894 566.739 221.894C567.691 221.894 568.461 221.11 568.461 219.948ZM573.267 223H571.839V212.948H573.267V223ZM579.416 221.628V222.874C578.982 223.07 578.604 223.14 578.156 223.14C576.784 223.14 575.832 222.398 575.832 220.76V216.784H574.194V215.58H575.832V213.382H577.246V215.58H579.486V216.784H577.246V220.438C577.246 221.46 577.736 221.824 578.492 221.824C578.828 221.824 579.122 221.768 579.416 221.628ZM585.329 223V221.852C584.867 222.678 584.041 223.14 582.949 223.14C581.409 223.14 580.401 222.258 580.401 220.9C580.401 219.444 581.563 218.688 583.775 218.688C584.209 218.688 584.559 218.702 585.161 218.772V218.226C585.161 217.162 584.587 216.56 583.607 216.56C582.571 216.56 581.941 217.176 581.899 218.212H580.611C580.681 216.546 581.871 215.44 583.607 215.44C585.441 215.44 586.505 216.476 586.505 218.24V223H585.329ZM581.745 220.858C581.745 221.628 582.319 222.132 583.229 222.132C584.419 222.132 585.161 221.39 585.161 220.256V219.654C584.615 219.584 584.223 219.57 583.859 219.57C582.445 219.57 581.745 219.99 581.745 220.858ZM589.81 218.814V223H588.396V215.58H589.712V216.812C590.216 215.986 591.056 215.44 592.078 215.44C593.604 215.44 594.612 216.42 594.612 218.198V223H593.198V218.674C593.198 217.4 592.638 216.686 591.588 216.686C590.622 216.686 589.81 217.498 589.81 218.814ZM600.648 221.628V222.874C600.214 223.07 599.836 223.14 599.388 223.14C598.016 223.14 597.064 222.398 597.064 220.76V216.784H595.426V215.58H597.064V213.382H598.478V215.58H600.718V216.784H598.478V220.438C598.478 221.46 598.968 221.824 599.724 221.824C600.06 221.824 600.354 221.768 600.648 221.628ZM607.92 220.788C607.92 222.244 606.786 223.14 604.812 223.14C602.852 223.14 601.69 222.174 601.55 220.578H602.908C602.964 221.502 603.706 222.076 604.84 222.076C605.834 222.076 606.492 221.726 606.492 221.026C606.492 220.41 606.114 220.144 605.19 219.962L603.986 219.738C602.614 219.472 601.844 218.772 601.844 217.652C601.844 216.35 602.978 215.44 604.7 215.44C606.478 215.44 607.682 216.392 607.808 217.918H606.45C606.366 217.022 605.708 216.504 604.714 216.504C603.818 216.504 603.216 216.882 603.216 217.526C603.216 218.128 603.594 218.408 604.49 218.576L605.75 218.814C607.22 219.08 607.92 219.724 607.92 220.788ZM611.382 221.992C611.382 222.622 610.948 223.07 610.304 223.07C609.674 223.07 609.226 222.622 609.226 221.992C609.226 221.334 609.674 220.886 610.304 220.886C610.948 220.886 611.382 221.334 611.382 221.992Z" fill="#3D3D3D"/>
<defs>
<filter id="filter0_ii_30_792" x="0.949219" y="-20" width="339.11" height="377.111" filterUnits="userSpaceOnUse" color-interpolation-filters="sRGB">
<feFlood flood-opacity="0" result="BackgroundImageFix"/>
<feBlend mode="normal" in="SourceGraphic" in2="BackgroundImageFix" result="shape"/>
<feColorMatrix in="SourceAlpha" type="matrix" values="0 0 0 0 0 0 0 0 0 0 0 0 0 0 0 0 0 0 127 0" result="hardAlpha"/>
<feOffset dx="2" dy="20"/>
<feGaussianBlur stdDeviation="12"/>
<feComposite in2="hardAlpha" operator="arithmetic" k2="-1" k3="1"/>
<feColorMatrix type="matrix" values="0 0 0 0 0 0 0 0 0 0 0 0 0 0 0 0 0 0 0.05 0"/>
<feBlend mode="normal" in2="shape" result="effect1_innerShadow_30_792"/>
<feColorMatrix in="SourceAlpha" type="matrix" values="0 0 0 0 0 0 0 0 0 0 0 0 0 0 0 0 0 0 127 0" result="hardAlpha"/>
<feOffset dx="2" dy="-20"/>
<feGaussianBlur stdDeviation="12"/>
<feComposite in2="hardAlpha" operator="arithmetic" k2="-1" k3="1"/>
<feColorMatrix type="matrix" values="0 0 0 0 0 0 0 0 0 0 0 0 0 0 0 0 0 0 0.05 0"/>
<feBlend mode="normal" in2="effect1_innerShadow_30_792" result="effect2_innerShadow_30_792"/>
</filter>
<filter id="filter1_ii_30_792" x="363.949" y="-20" width="339.111" height="377.111" filterUnits="userSpaceOnUse" color-interpolation-filters="sRGB">
<feFlood flood-opacity="0" result="BackgroundImageFix"/>
<feBlend mode="normal" in="SourceGraphic" in2="BackgroundImageFix" result="shape"/>
<feColorMatrix in="SourceAlpha" type="matrix" values="0 0 0 0 0 0 0 0 0 0 0 0 0 0 0 0 0 0 127 0" result="hardAlpha"/>
<feOffset dx="2" dy="20"/>
<feGaussianBlur stdDeviation="12"/>
<feComposite in2="hardAlpha" operator="arithmetic" k2="-1" k3="1"/>
<feColorMatrix type="matrix" values="0 0 0 0 0 0 0 0 0 0 0 0 0 0 0 0 0 0 0.05 0"/>
<feBlend mode="normal" in2="shape" result="effect1_innerShadow_30_792"/>
<feColorMatrix in="SourceAlpha" type="matrix" values="0 0 0 0 0 0 0 0 0 0 0 0 0 0 0 0 0 0 127 0" result="hardAlpha"/>
<feOffset dx="2" dy="-20"/>
<feGaussianBlur stdDeviation="12"/>
<feComposite in2="hardAlpha" operator="arithmetic" k2="-1" k3="1"/>
<feColorMatrix type="matrix" values="0 0 0 0 0 0 0 0 0 0 0 0 0 0 0 0 0 0 0.05 0"/>
<feBlend mode="normal" in2="effect1_innerShadow_30_792" result="effect2_innerShadow_30_792"/>
</filter>
</defs>
</svg>
