<svg width="358" height="720" viewBox="0 0 458 820" fill="none" xmlns="http://www.w3.org/2000/svg">
<path d="M53.0002 513.408L251.229 427L454.541 513.408L253.771 597.274L53.0002 513.408Z" fill="url(#paint0_radial_30_663)"/>
<path d="M454.541 1075.06V513.407L253.771 597.274V1075.06H454.541Z" fill="url(#paint1_linear_30_663)"/>
<path d="M253.771 1075.06V597.274L53.0002 513.407V1075.06H253.771Z" fill="url(#paint2_linear_30_663)"/>
<path d="M239.631 393.675L215.302 450.64" stroke="black" stroke-width="1.3"/>
<path d="M244.179 391.652L350.088 435.099" stroke="black" stroke-width="1.3"/>
<path d="M297.856 355.278L243.09 389.636" stroke="black" stroke-width="1.3"/>
<path d="M177.554 375.143L238.798 388.918" stroke="black" stroke-width="1.3"/>
<path d="M151.511 426.527L143.109 484.867" stroke="black" stroke-width="1.3"/>
<path d="M154.815 423.006L214.576 449.297" stroke="black" stroke-width="1.3"/>
<path d="M172.335 377.529L152.429 417.787" stroke="black" stroke-width="1.3"/>
<path d="M175.802 379.127L214.73 448.78" stroke="black" stroke-width="1.3"/>
<path d="M50.9368 351.994L150.414 418.875" stroke="black" stroke-width="1.3"/>
<path d="M49.3849 351.531L170.675 373.653" stroke="black" stroke-width="1.3"/>
<path d="M236.976 304.427L241.122 386.795" stroke="black" stroke-width="1.3"/>
<path d="M303.238 358.012L350.034 433.393" stroke="black" stroke-width="1.3"/>
<path d="M237.385 301.168L300.489 352.12" stroke="black" stroke-width="1.3"/>
<path d="M232.166 303.554L175.431 372.819" stroke="black" stroke-width="1.3"/>
<path d="M49.9022 351.685L233.039 298.744" stroke="black" stroke-width="1.3"/>
<path d="M356.977 291.233L301.987 350.877" stroke="black" stroke-width="1.3"/>
<path d="M313.052 311.925L301.624 350.206" stroke="black" stroke-width="1.3"/>
<path d="M288.847 232.583L300.227 349.225" stroke="black" stroke-width="1.3"/>
<path d="M191.755 246.418L233.71 298.381" stroke="black" stroke-width="1.3"/>
<path d="M285.743 231.656L235.417 298.327" stroke="black" stroke-width="1.3"/>
<path d="M318.109 304.42L356.251 289.889" stroke="black" stroke-width="1.3"/>
<path d="M290.399 233.046L312.728 301.686" stroke="black" stroke-width="1.3"/>
<path d="M291.897 231.803L357.695 286.94" stroke="black" stroke-width="1.3"/>
<path d="M293.132 227.664L353.936 222.152" stroke="black" stroke-width="1.3"/>
<path d="M357.511 227.163L359.093 287.92" stroke="black" stroke-width="1.3"/>
<path d="M402.255 162.207L356.777 220.184" stroke="black" stroke-width="1.3"/>
<path d="M310.428 169.726L355.171 218.014" stroke="black" stroke-width="1.3"/>
<path d="M261.994 182.875L288.114 225.603" stroke="black" stroke-width="1.3"/>
<path d="M261.322 183.237L235.208 297.138" stroke="black" stroke-width="1.3"/>
<path d="M261.631 182.203L191.291 247.97" stroke="black" stroke-width="1.3"/>
<path d="M227.859 140.57L261.631 182.203" stroke="black" stroke-width="1.3"/>
<path d="M311.355 166.622L404.726 153.93" stroke="black" stroke-width="1.3"/>
<path d="M321.215 116.605L404.88 153.412" stroke="black" stroke-width="1.3"/>
<path d="M322.404 116.396L308.042 164.506" stroke="black" stroke-width="1.3"/>
<path d="M227.342 140.416L307.008 164.198" stroke="black" stroke-width="1.3"/>
<path d="M227.496 139.899L191.963 247.607" stroke="black" stroke-width="1.3"/>
<path d="M262.357 183.546L308.305 167.402" stroke="black" stroke-width="1.3"/>
<path d="M167.118 77.9286L226.462 139.59L321.524 115.57" stroke="black" stroke-width="1.3"/>
<path d="M165.875 76.431L192.326 248.279L49.022 350.859L142.283 485.747L214.421 449.814L352.366 436.906L359.764 287.558L406.223 152.687L385.925 94.2304L321.006 115.416L165.875 76.431Z" stroke="black" stroke-width="1.3"/>
<path d="M308.668 168.074L291.526 225.495" stroke="black" stroke-width="1.3"/>
<circle cx="385.771" cy="94.7474" r="6.47841" transform="rotate(16.6214 385.771 94.7474)" fill="black"/>
<circle cx="405.814" cy="155.945" r="6.47841" transform="rotate(16.6214 405.814 155.945)" fill="black"/>
<circle cx="322.921" cy="116.551" r="6.47841" transform="rotate(16.6214 322.921 116.551)" fill="black"/>
<circle cx="308.096" cy="166.213" r="6.47841" transform="rotate(16.6214 308.096 166.213)" fill="black"/>
<circle cx="357.294" cy="220.338" r="6.47841" transform="rotate(16.6214 357.294 220.338)" fill="black"/>
<circle cx="359.456" cy="288.592" r="6.47841" transform="rotate(16.6214 359.456 288.592)" fill="black"/>
<circle cx="228.014" cy="140.053" r="6.47841" transform="rotate(16.6214 228.014 140.053)" fill="black"/>
<circle cx="165.876" cy="76.4307" r="18.1553" transform="rotate(16.6214 165.876 76.4307)" fill="url(#paint3_linear_30_663)"/>
<circle cx="165.876" cy="76.4307" r="10.9758" transform="rotate(16.6214 165.876 76.4307)" fill="url(#paint4_linear_30_663)" fill-opacity="0.7"/>
<circle cx="48.3633" cy="350.931" r="18.1553" transform="rotate(16.6214 48.3633 350.931)" fill="url(#paint5_linear_30_663)"/>
<circle cx="48.3632" cy="350.931" r="10.9758" transform="rotate(16.6214 48.3632 350.931)" fill="url(#paint6_linear_30_663)" fill-opacity="0.7"/>
<circle cx="191.59" cy="244.59" r="18.1553" transform="rotate(16.6214 191.59 244.59)" fill="url(#paint7_linear_30_663)"/>
<circle cx="191.59" cy="244.59" r="10.9758" transform="rotate(16.6214 191.59 244.59)" fill="url(#paint8_linear_30_663)" fill-opacity="0.7"/>
<circle cx="359.364" cy="287.931" r="18.1553" transform="rotate(16.6214 359.364 287.931)" fill="url(#paint9_linear_30_663)"/>
<circle cx="359.363" cy="287.931" r="10.9758" transform="rotate(16.6214 359.363 287.931)" fill="url(#paint10_linear_30_663)" fill-opacity="0.7"/>
<circle cx="385.364" cy="93.9317" r="18.1553" transform="rotate(16.6214 385.364 93.9317)" fill="url(#paint11_linear_30_663)"/>
<circle cx="385.364" cy="93.9317" r="10.9758" transform="rotate(16.6214 385.364 93.9317)" fill="url(#paint12_linear_30_663)" fill-opacity="0.7"/>
<circle cx="165.875" cy="76.4309" r="6.47841" transform="rotate(16.6214 165.875 76.4309)" fill="black"/>
<circle cx="288.948" cy="230.359" r="6.47841" transform="rotate(16.6214 288.948 230.359)" fill="black"/>
<circle cx="314.905" cy="305.717" r="6.47841" transform="rotate(16.6214 314.905 305.717)" fill="black"/>
<circle cx="302.041" cy="352.584" r="6.47841" transform="rotate(16.6214 302.041 352.584)" fill="black"/>
<circle cx="234.745" cy="298.69" r="6.47841" transform="rotate(16.6214 234.745 298.69)" fill="black"/>
<circle cx="48.8675" cy="351.377" r="6.47841" transform="rotate(16.6214 48.8675 351.377)" fill="black"/>
<circle cx="151.866" cy="421.562" r="6.47841" transform="rotate(16.6214 151.866 421.562)" fill="black"/>
<circle cx="141.92" cy="485.075" r="6.47841" transform="rotate(16.6214 141.92 485.075)" fill="black"/>
<circle cx="174.242" cy="373.028" r="6.47841" transform="rotate(16.6214 174.242 373.028)" fill="black"/>
<circle cx="241.384" cy="389.691" r="6.47841" transform="rotate(16.6214 241.384 389.691)" fill="black"/>
<circle cx="349.417" cy="435.462" r="6.47841" transform="rotate(16.6214 349.417 435.462)" fill="black"/>
<circle cx="215.611" cy="449.606" r="6.47841" transform="rotate(16.6214 215.611 449.606)" fill="black"/>
<circle cx="192.063" cy="245.383" r="6.47841" transform="rotate(16.6214 192.063 245.383)" fill="black"/>
<circle cx="261.476" cy="182.72" r="6.47841" transform="rotate(16.6214 261.476 182.72)" fill="black"/>
<g filter="url(#filter0_f_30_663)">
<ellipse cx="256" cy="509" rx="59" ry="11" fill="black" fill-opacity="0.12"/>
</g>
<defs>
<filter id="filter0_f_30_663" x="147" y="448" width="218" height="122" filterUnits="userSpaceOnUse" color-interpolation-filters="sRGB">
<feFlood flood-opacity="0" result="BackgroundImageFix"/>
<feBlend mode="normal" in="SourceGraphic" in2="BackgroundImageFix" result="shape"/>
<feGaussianBlur stdDeviation="25" result="effect1_foregroundBlur_30_663"/>
</filter>
<radialGradient id="paint0_radial_30_663" cx="0" cy="0" r="1" gradientUnits="userSpaceOnUse" gradientTransform="translate(251.229 439.707) rotate(91.9525) scale(447.546 1094.77)">
<stop stop-color="#F2F2F2"/>
<stop offset="1" stop-color="#EFEFEF" stop-opacity="0"/>
</radialGradient>
<linearGradient id="paint1_linear_30_663" x1="354.156" y1="513.407" x2="352.885" y2="1773.94" gradientUnits="userSpaceOnUse">
<stop stop-color="#313736"/>
<stop offset="0.390076" stop-color="#454545" stop-opacity="0.75"/>
<stop offset="1" stop-color="#0A0E0D" stop-opacity="0"/>
</linearGradient>
<linearGradient id="paint2_linear_30_663" x1="153.385" y1="513.407" x2="154.656" y2="1733.28" gradientUnits="userSpaceOnUse">
<stop stop-color="#0E0E0D"/>
<stop offset="1" stop-opacity="0.26"/>
</linearGradient>
<linearGradient id="paint3_linear_30_663" x1="163.443" y1="49.4082" x2="165.876" y2="94.586" gradientUnits="userSpaceOnUse">
<stop stop-opacity="0.21"/>
<stop offset="1" stop-opacity="0"/>
</linearGradient>
<linearGradient id="paint4_linear_30_663" x1="137.957" y1="54.9289" x2="179.447" y2="78.5478" gradientUnits="userSpaceOnUse">
<stop/>
<stop offset="1" stop-opacity="0"/>
</linearGradient>
<linearGradient id="paint5_linear_30_663" x1="45.9306" y1="323.909" x2="48.3633" y2="369.086" gradientUnits="userSpaceOnUse">
<stop stop-opacity="0.21"/>
<stop offset="1" stop-opacity="0"/>
</linearGradient>
<linearGradient id="paint6_linear_30_663" x1="20.4449" y1="329.429" x2="61.9346" y2="353.048" gradientUnits="userSpaceOnUse">
<stop/>
<stop offset="1" stop-opacity="0"/>
</linearGradient>
<linearGradient id="paint7_linear_30_663" x1="189.157" y1="217.567" x2="191.59" y2="262.745" gradientUnits="userSpaceOnUse">
<stop stop-opacity="0.21"/>
<stop offset="1" stop-opacity="0"/>
</linearGradient>
<linearGradient id="paint8_linear_30_663" x1="163.672" y1="223.088" x2="205.161" y2="246.707" gradientUnits="userSpaceOnUse">
<stop/>
<stop offset="1" stop-opacity="0"/>
</linearGradient>
<linearGradient id="paint9_linear_30_663" x1="356.931" y1="260.909" x2="359.364" y2="306.086" gradientUnits="userSpaceOnUse">
<stop stop-opacity="0.21"/>
<stop offset="1" stop-opacity="0"/>
</linearGradient>
<linearGradient id="paint10_linear_30_663" x1="331.445" y1="266.429" x2="372.935" y2="290.048" gradientUnits="userSpaceOnUse">
<stop/>
<stop offset="1" stop-opacity="0"/>
</linearGradient>
<linearGradient id="paint11_linear_30_663" x1="382.932" y1="66.9092" x2="385.364" y2="112.087" gradientUnits="userSpaceOnUse">
<stop stop-opacity="0.21"/>
<stop offset="1" stop-opacity="0"/>
</linearGradient>
<linearGradient id="paint12_linear_30_663" x1="357.446" y1="72.4299" x2="398.936" y2="96.0488" gradientUnits="userSpaceOnUse">
<stop/>
<stop offset="1" stop-opacity="0"/>
</linearGradient>
</defs>
</svg>
