<svg width="202" height="89" viewBox="0 0 202 89" fill="none" xmlns="http://www.w3.org/2000/svg">
<g filter="url(#filter0_d_30_749)">
<rect x="16" y="16" width="170" height="56" rx="28" fill="white" shape-rendering="crispEdges"/>
<path d="M48.208 50H41.248V38.512H43.008V48.416H48.208V50ZM52.7411 50.16C50.2931 50.16 48.6451 48.384 48.6451 45.712C48.6451 43.2 50.3571 41.36 52.6931 41.36C55.2211 41.36 56.9011 43.408 56.6131 46.16H50.2931C50.4211 47.888 51.2851 48.896 52.7091 48.896C53.9091 48.896 54.7411 48.24 55.0131 47.136H56.6131C56.1971 49.024 54.7411 50.16 52.7411 50.16ZM52.6611 42.576C51.3651 42.576 50.4851 43.504 50.3091 45.088H54.9011C54.8211 43.52 53.9731 42.576 52.6611 42.576ZM63.1473 50V48.688C62.6193 49.632 61.6753 50.16 60.4273 50.16C58.6673 50.16 57.5153 49.152 57.5153 47.6C57.5153 45.936 58.8433 45.072 61.3713 45.072C61.8673 45.072 62.2673 45.088 62.9553 45.168V44.544C62.9553 43.328 62.2993 42.64 61.1793 42.64C59.9953 42.64 59.2753 43.344 59.2273 44.528H57.7553C57.8353 42.624 59.1953 41.36 61.1793 41.36C63.2753 41.36 64.4913 42.544 64.4913 44.56V50H63.1473ZM59.0513 47.552C59.0513 48.432 59.7073 49.008 60.7473 49.008C62.1073 49.008 62.9553 48.16 62.9553 46.864V46.176C62.3313 46.096 61.8833 46.08 61.4673 46.08C59.8513 46.08 59.0513 46.56 59.0513 47.552ZM67.9479 45.664V50H66.3319V41.52H67.8359V43.312C68.4279 42.144 69.7079 41.408 71.0999 41.408V43.088C69.2759 42.992 67.9479 43.792 67.9479 45.664ZM73.6747 45.216V50H72.0587V41.52H73.5627V42.928C74.1387 41.984 75.0987 41.36 76.2667 41.36C78.0107 41.36 79.1627 42.48 79.1627 44.512V50H77.5467V45.056C77.5467 43.6 76.9067 42.784 75.7067 42.784C74.6027 42.784 73.6747 43.712 73.6747 45.216ZM85.6285 50H84.0125V41.52H85.5165V42.928C86.0925 41.952 87.0045 41.36 88.1725 41.36C89.4205 41.36 90.3645 42 90.7485 43.12C91.3405 42.032 92.3165 41.36 93.6125 41.36C95.3565 41.36 96.4765 42.496 96.4765 44.512V50H94.8605V45.024C94.8605 43.616 94.2365 42.784 93.0525 42.784C91.9485 42.784 91.0525 43.712 91.0525 45.136V50H89.4365V45.024C89.4365 43.616 88.8125 42.784 87.6285 42.784C86.5085 42.784 85.6285 43.712 85.6285 45.136V50ZM101.869 50.16C99.4695 50.16 97.7095 48.272 97.7095 45.76C97.7095 43.248 99.4695 41.36 101.869 41.36C104.269 41.36 106.029 43.248 106.029 45.76C106.029 48.272 104.269 50.16 101.869 50.16ZM101.869 48.736C103.261 48.736 104.365 47.616 104.365 45.76C104.365 43.904 103.261 42.8 101.869 42.8C100.477 42.8 99.3895 43.904 99.3895 45.76C99.3895 47.616 100.477 48.736 101.869 48.736ZM108.973 45.664V50H107.357V41.52H108.861V43.312C109.453 42.144 110.733 41.408 112.125 41.408V43.088C110.301 42.992 108.973 43.792 108.973 45.664ZM116.541 50.16C114.093 50.16 112.445 48.384 112.445 45.712C112.445 43.2 114.157 41.36 116.493 41.36C119.021 41.36 120.701 43.408 120.413 46.16H114.093C114.221 47.888 115.085 48.896 116.509 48.896C117.709 48.896 118.541 48.24 118.813 47.136H120.413C119.997 49.024 118.541 50.16 116.541 50.16ZM116.461 42.576C115.165 42.576 114.285 43.504 114.109 45.088H118.701C118.621 43.52 117.773 42.576 116.461 42.576Z" fill="black"/>
<rect width="24" height="24" rx="12" transform="matrix(0 -1 -1 0 162 56)" fill="#0D0D0D"/>
<path d="M150.592 39.1466C150.55 39.1931 150.516 39.2482 150.493 39.3089C150.47 39.3696 150.458 39.4347 150.458 39.5004C150.458 39.5661 150.47 39.6311 150.493 39.6918C150.516 39.7525 150.55 39.8077 150.592 39.8541L153.935 43.5001H144.958C144.837 43.5001 144.72 43.5528 144.634 43.6465C144.548 43.7403 144.5 43.8675 144.5 44.0001C144.5 44.1327 144.548 44.2598 144.634 44.3536C144.72 44.4473 144.837 44.5 144.958 44.5H153.935L150.592 48.146C150.506 48.2398 150.458 48.3671 150.458 48.4998C150.458 48.6324 150.506 48.7597 150.592 48.8535C150.678 48.9473 150.795 49 150.916 49C151.038 49 151.155 48.9473 151.241 48.8535L155.366 44.3538C155.408 44.3074 155.442 44.2522 155.465 44.1915C155.488 44.1308 155.5 44.0658 155.5 44.0001C155.5 43.9344 155.488 43.8693 155.465 43.8086C155.442 43.7479 155.408 43.6928 155.366 43.6463L151.241 39.1466C151.198 39.1001 151.148 39.0633 151.092 39.0381C151.036 39.0129 150.977 39 150.916 39C150.856 39 150.797 39.0129 150.741 39.0381C150.685 39.0633 150.635 39.1001 150.592 39.1466Z" fill="white"/>
</g>
<defs>
<filter id="filter0_d_30_749" x="0" y="0.5" width="202" height="88" filterUnits="userSpaceOnUse" color-interpolation-filters="sRGB">
<feFlood flood-opacity="0" result="BackgroundImageFix"/>
<feColorMatrix in="SourceAlpha" type="matrix" values="0 0 0 0 0 0 0 0 0 0 0 0 0 0 0 0 0 0 127 0" result="hardAlpha"/>
<feOffset dy="0.5"/>
<feGaussianBlur stdDeviation="8"/>
<feComposite in2="hardAlpha" operator="out"/>
<feColorMatrix type="matrix" values="0 0 0 0 0.606429 0 0 0 0 0.606429 0 0 0 0 0.606429 0 0 0 0.05 0"/>
<feBlend mode="normal" in2="BackgroundImageFix" result="effect1_dropShadow_30_749"/>
<feBlend mode="normal" in="SourceGraphic" in2="effect1_dropShadow_30_749" result="shape"/>
</filter>
</defs>
</svg>
