<svg width="189" height="56" viewBox="0 0 189 56" fill="none" xmlns="http://www.w3.org/2000/svg">
<rect width="189" height="56" rx="28" fill="#0D0D0D"/>
<path d="M33.648 30.64C33.648 32.64 32.048 34.16 29.264 34.16C26.496 34.16 24.816 32.64 24.672 30.352H26.464C26.544 31.808 27.472 32.752 29.232 32.752C30.688 32.752 31.776 32.064 31.776 30.88C31.776 29.92 31.152 29.44 29.824 29.152L28.16 28.832C26.544 28.512 25.072 27.696 25.072 25.744C25.072 23.808 26.768 22.352 29.152 22.352C31.536 22.352 33.344 23.808 33.488 26.096H31.696C31.6 24.72 30.608 23.76 29.168 23.76C27.68 23.76 26.864 24.64 26.864 25.632C26.864 26.72 27.808 27.104 28.88 27.328L30.576 27.664C32.544 28.064 33.648 28.928 33.648 30.64ZM38.7255 34.16C36.2775 34.16 34.6295 32.384 34.6295 29.712C34.6295 27.2 36.3415 25.36 38.6775 25.36C41.2055 25.36 42.8855 27.408 42.5975 30.16H36.2775C36.4055 31.888 37.2695 32.896 38.6935 32.896C39.8935 32.896 40.7255 32.24 40.9975 31.136H42.5975C42.1815 33.024 40.7255 34.16 38.7255 34.16ZM38.6455 26.576C37.3495 26.576 36.4695 27.504 36.2935 29.088H40.8855C40.8055 27.52 39.9575 26.576 38.6455 26.576ZM45.6116 29.216V34H43.9956V25.52H45.4996V26.928C46.0756 25.984 47.0356 25.36 48.2036 25.36C49.9476 25.36 51.0996 26.48 51.0996 28.512V34H49.4836V29.056C49.4836 27.6 48.8436 26.784 47.6436 26.784C46.5396 26.784 45.6116 27.712 45.6116 29.216ZM52.3176 29.76C52.3176 27.184 53.7896 25.36 56.0776 25.36C57.2136 25.36 58.2056 25.936 58.7976 26.976V22.512H60.4136V34H58.9096V32.48C58.3016 33.552 57.2776 34.16 56.0776 34.16C53.7896 34.16 52.3176 32.304 52.3176 29.76ZM53.9976 29.76C53.9976 31.648 54.9896 32.72 56.3976 32.72C57.7736 32.72 58.7976 31.6 58.7976 29.728C58.7976 27.824 57.7416 26.784 56.3976 26.784C54.9896 26.784 53.9976 27.84 53.9976 29.76ZM66.9798 34H65.3638V25.52H66.8678V26.928C67.4438 25.952 68.3558 25.36 69.5238 25.36C70.7718 25.36 71.7158 26 72.0998 27.12C72.6918 26.032 73.6678 25.36 74.9638 25.36C76.7078 25.36 77.8278 26.496 77.8278 28.512V34H76.2118V29.024C76.2118 27.616 75.5878 26.784 74.4038 26.784C73.2998 26.784 72.4038 27.712 72.4038 29.136V34H70.7878V29.024C70.7878 27.616 70.1638 26.784 68.9798 26.784C67.8598 26.784 66.9798 27.712 66.9798 29.136V34ZM83.1568 34.16C80.7088 34.16 79.0608 32.384 79.0608 29.712C79.0608 27.2 80.7728 25.36 83.1088 25.36C85.6368 25.36 87.3168 27.408 87.0288 30.16H80.7088C80.8368 31.888 81.7008 32.896 83.1248 32.896C84.3248 32.896 85.1568 32.24 85.4288 31.136H87.0288C86.6128 33.024 85.1568 34.16 83.1568 34.16ZM83.0768 26.576C81.7808 26.576 80.9008 27.504 80.7248 29.088H85.3168C85.2368 27.52 84.3888 26.576 83.0768 26.576ZM95.1469 31.472C95.1469 33.136 93.8509 34.16 91.5949 34.16C89.3549 34.16 88.0269 33.056 87.8669 31.232H89.4189C89.4829 32.288 90.3309 32.944 91.6269 32.944C92.7629 32.944 93.5149 32.544 93.5149 31.744C93.5149 31.04 93.0829 30.736 92.0269 30.528L90.6509 30.272C89.0829 29.968 88.2029 29.168 88.2029 27.888C88.2029 26.4 89.4989 25.36 91.4669 25.36C93.4989 25.36 94.8749 26.448 95.0189 28.192H93.4669C93.3709 27.168 92.6189 26.576 91.4829 26.576C90.4589 26.576 89.7709 27.008 89.7709 27.744C89.7709 28.432 90.2029 28.752 91.2269 28.944L92.6669 29.216C94.3469 29.52 95.1469 30.256 95.1469 31.472ZM103.311 31.472C103.311 33.136 102.015 34.16 99.7593 34.16C97.5193 34.16 96.1913 33.056 96.0313 31.232H97.5833C97.6473 32.288 98.4953 32.944 99.7913 32.944C100.927 32.944 101.679 32.544 101.679 31.744C101.679 31.04 101.247 30.736 100.191 30.528L98.8153 30.272C97.2473 29.968 96.3673 29.168 96.3673 27.888C96.3673 26.4 97.6633 25.36 99.6313 25.36C101.663 25.36 103.039 26.448 103.183 28.192H101.631C101.535 27.168 100.783 26.576 99.6473 26.576C98.6233 26.576 97.9353 27.008 97.9353 27.744C97.9353 28.432 98.3673 28.752 99.3913 28.944L100.831 29.216C102.511 29.52 103.311 30.256 103.311 31.472ZM109.892 34V32.688C109.364 33.632 108.42 34.16 107.172 34.16C105.412 34.16 104.26 33.152 104.26 31.6C104.26 29.936 105.588 29.072 108.116 29.072C108.612 29.072 109.012 29.088 109.7 29.168V28.544C109.7 27.328 109.044 26.64 107.924 26.64C106.74 26.64 106.02 27.344 105.972 28.528H104.5C104.58 26.624 105.94 25.36 107.924 25.36C110.02 25.36 111.236 26.544 111.236 28.56V34H109.892ZM105.796 31.552C105.796 32.432 106.452 33.008 107.492 33.008C108.852 33.008 109.7 32.16 109.7 30.864V30.176C109.076 30.096 108.628 30.08 108.212 30.08C106.596 30.08 105.796 30.56 105.796 31.552ZM116.468 37.264C114.244 37.264 112.804 36.08 112.708 34.16H114.276C114.372 35.344 115.14 35.984 116.452 35.984C117.908 35.984 118.676 35.2 118.676 33.744V32.208C118.196 33.232 117.236 33.824 116.084 33.824C113.972 33.824 112.468 32.08 112.468 29.584C112.468 27.056 113.908 25.36 116.036 25.36C117.252 25.36 118.212 25.952 118.788 27.024V25.52H120.292V33.712C120.292 35.936 118.868 37.264 116.468 37.264ZM114.1 29.584C114.1 31.344 114.964 32.416 116.372 32.416C117.748 32.416 118.676 31.312 118.676 29.632C118.676 27.872 117.764 26.752 116.372 26.752C114.98 26.752 114.1 27.84 114.1 29.584ZM125.697 34.16C123.249 34.16 121.601 32.384 121.601 29.712C121.601 27.2 123.313 25.36 125.649 25.36C128.177 25.36 129.857 27.408 129.569 30.16H123.249C123.377 31.888 124.241 32.896 125.665 32.896C126.865 32.896 127.697 32.24 127.969 31.136H129.569C129.153 33.024 127.697 34.16 125.697 34.16ZM125.617 26.576C124.321 26.576 123.441 27.504 123.265 29.088H127.857C127.777 27.52 126.929 26.576 125.617 26.576Z" fill="white"/>
<rect width="24" height="24" rx="12" transform="matrix(0 -1 -1 0 165 40)" fill="white"/>
<path d="M153.592 23.1466C153.55 23.1931 153.516 23.2482 153.493 23.3089C153.47 23.3696 153.458 23.4347 153.458 23.5004C153.458 23.5661 153.47 23.6311 153.493 23.6918C153.516 23.7525 153.55 23.8077 153.592 23.8541L156.935 27.5001H147.958C147.837 27.5001 147.72 27.5528 147.634 27.6465C147.548 27.7403 147.5 27.8675 147.5 28.0001C147.5 28.1327 147.548 28.2598 147.634 28.3536C147.72 28.4473 147.837 28.5 147.958 28.5H156.935L153.592 32.146C153.506 32.2398 153.458 32.3671 153.458 32.4998C153.458 32.6324 153.506 32.7597 153.592 32.8535C153.678 32.9473 153.795 33 153.916 33C154.038 33 154.155 32.9473 154.241 32.8535L158.366 28.3538C158.408 28.3074 158.442 28.2522 158.465 28.1915C158.488 28.1308 158.5 28.0658 158.5 28.0001C158.5 27.9344 158.488 27.8693 158.465 27.8086C158.442 27.7479 158.408 27.6928 158.366 27.6463L154.241 23.1466C154.198 23.1001 154.148 23.0633 154.092 23.0381C154.036 23.0129 153.977 23 153.916 23C153.856 23 153.797 23.0129 153.741 23.0381C153.685 23.0633 153.635 23.1001 153.592 23.1466Z" fill="black"/>
</svg>
