<svg width="51" height="52" viewBox="0 0 51 52" fill="none" xmlns="http://www.w3.org/2000/svg">
<rect width="51" height="52" rx="12" fill="#1C1C1C"/>
<path fill-rule="evenodd" clip-rule="evenodd" d="M31.1988 18.2649C31.3968 18.2477 31.5936 18.3098 31.7458 18.4376C31.8981 18.5653 31.9934 18.7483 32.0108 18.9463L32.9353 29.5125C32.9476 29.6125 32.9396 29.7139 32.9119 29.8107C32.8842 29.9076 32.8372 29.9978 32.7738 30.0761C32.7105 30.1544 32.632 30.2191 32.5431 30.2664C32.4541 30.3137 32.3566 30.3426 32.2563 30.3514C32.1559 30.3601 32.0548 30.3486 31.9591 30.3175C31.8633 30.2863 31.7747 30.2362 31.6987 30.1701C31.6227 30.1041 31.5608 30.0233 31.5167 29.9328C31.4726 29.8423 31.4471 29.7438 31.4419 29.6432L30.6752 20.8802L20.2685 33.2825C20.1407 33.4349 19.9575 33.5302 19.7593 33.5476C19.5612 33.5649 19.3643 33.5028 19.2119 33.3749C19.0595 33.2471 18.9642 33.0639 18.9468 32.8658C18.9295 32.6676 18.9916 32.4707 19.1194 32.3183L29.5262 19.9161L20.7632 20.6827C20.6633 20.695 20.5619 20.6871 20.465 20.6593C20.3682 20.6316 20.278 20.5847 20.1997 20.5213C20.1214 20.4579 20.0567 20.3794 20.0094 20.2905C19.9621 20.2016 19.9332 20.104 19.9244 20.0037C19.9156 19.9034 19.9272 19.8023 19.9583 19.7065C19.9894 19.6107 20.0395 19.5222 20.1056 19.4462C20.1717 19.3702 20.2524 19.3083 20.343 19.2642C20.4335 19.22 20.532 19.1946 20.6326 19.1894L31.1988 18.2649Z" fill="white"/>
</svg>
