<svg width="579" height="439" viewBox="0 0 579 539" fill="none" xmlns="http://www.w3.org/2000/svg">
<path d="M98.6017 117.383L99.1162 118.241L99.1522 118.219L99.1862 118.195L98.6017 117.383ZM345.058 131.652L340.841 120.902L333.64 129.929L345.058 131.652ZM11.3964 257.46C11.3879 256.834 11.3864 256.194 11.3919 255.541L9.39201 255.524C9.38631 256.191 9.38793 256.846 9.3966 257.487L11.3964 257.46ZM11.5054 251.645C11.5669 250.385 11.6534 249.086 11.7667 247.751L9.77383 247.582C9.6586 248.94 9.57044 250.263 9.50774 251.547L11.5054 251.645ZM12.1597 243.881C12.3083 242.621 12.4798 241.333 12.6755 240.021L10.6973 239.726C10.4987 241.059 10.3245 242.366 10.1735 243.647L12.1597 243.881ZM13.3064 236.173C13.5313 234.915 13.7777 233.637 14.0467 232.34L12.0885 231.934C11.8157 233.249 11.5657 234.545 11.3376 235.821L13.3064 236.173ZM14.8903 228.533C15.1837 227.288 15.4975 226.027 15.8327 224.753L13.8985 224.244C13.5589 225.535 13.2409 226.812 12.9436 228.074L14.8903 228.533ZM16.8722 220.997C17.2302 219.765 17.608 218.52 18.0064 217.266L16.1002 216.661C15.6968 217.931 15.3141 219.191 14.9515 220.44L16.8722 220.997ZM19.2337 213.56C19.6537 212.341 20.0932 211.114 20.5525 209.88L18.6781 209.182C18.2131 210.432 17.7682 211.674 17.3429 212.908L19.2337 213.56ZM21.9605 206.231C22.4374 205.037 22.9331 203.838 23.448 202.633L21.6089 201.847C21.0877 203.066 20.5861 204.28 20.1033 205.488L21.9605 206.231ZM25.0227 199.064C25.5578 197.889 26.1113 196.71 26.6838 195.527L24.8836 194.656C24.3042 195.853 23.744 197.046 23.2025 198.235L25.0227 199.064ZM28.43 192.023C29.0174 190.878 29.6227 189.73 30.2464 188.581L28.4883 187.627C27.8573 188.79 27.2448 189.952 26.6505 191.11L28.43 192.023ZM32.1463 185.172C32.7894 184.048 33.4504 182.924 34.1295 181.798L32.417 180.765C31.7299 181.904 31.0613 183.042 30.4106 184.178L32.1463 185.172ZM36.1822 178.481C36.8737 177.392 37.5824 176.302 38.3089 175.213L36.645 174.103C35.9101 175.205 35.1931 176.308 34.4936 177.41L36.1822 178.481ZM40.5166 171.982C41.2572 170.924 42.0149 169.867 42.79 168.811L41.1776 167.627C40.3936 168.696 39.6273 169.765 38.8781 170.835L40.5166 171.982ZM45.1318 165.693C45.9219 164.665 46.7287 163.639 47.5527 162.614L45.9944 161.361C45.1611 162.396 44.3451 163.434 43.5461 164.474L45.1318 165.693ZM50.0286 159.605C50.8607 158.616 51.7091 157.629 52.5742 156.645L51.0721 155.325C50.1974 156.319 49.3395 157.317 48.4981 158.317L50.0286 159.605ZM55.193 153.731C56.0646 152.782 56.9521 151.836 57.8557 150.893L56.4119 149.509C55.4984 150.462 54.6011 151.418 53.72 152.378L55.193 153.731ZM60.5942 148.096C61.5079 147.183 62.4373 146.273 63.3826 145.367L61.9986 143.923C61.0432 144.839 60.1038 145.758 59.1802 146.682L60.5942 148.096ZM66.2287 142.695C67.1835 141.817 68.1537 140.943 69.1395 140.074L67.8165 138.574C66.8204 139.452 65.84 140.335 64.875 141.222L66.2287 142.695ZM72.0856 137.528C73.0776 136.688 74.0846 135.853 75.1069 135.022L73.8457 133.47C72.813 134.309 71.7956 135.153 70.7933 136.001L72.0856 137.528ZM78.1495 132.599C79.1726 131.801 80.2103 131.008 81.2627 130.219L80.0636 128.618C79.0007 129.415 77.9526 130.216 76.9192 131.022L78.1495 132.599ZM84.4048 127.912C85.4568 127.155 86.5229 126.403 87.6034 125.657L86.4664 124.011C85.3755 124.765 84.299 125.524 83.2366 126.289L84.4048 127.912ZM90.836 123.467C91.9149 122.751 93.0075 122.04 94.1139 121.335L93.0388 119.648C91.922 120.36 90.8191 121.078 89.73 121.801L90.836 123.467ZM97.4283 119.264C97.9875 118.921 98.5501 118.58 99.1162 118.241L98.0872 116.526C97.516 116.869 96.9482 117.213 96.3839 117.558L97.4283 119.264ZM99.1862 118.195C99.7056 117.82 100.236 117.445 100.778 117.068L99.6349 115.426C99.0847 115.809 98.5454 116.191 98.0172 116.572L99.1862 118.195ZM104.091 114.836C105.184 114.123 106.315 113.407 107.481 112.691L106.435 110.986C105.253 111.712 104.107 112.437 102.998 113.161L104.091 114.836ZM110.885 110.661C112.012 110.008 113.168 109.355 114.353 108.705L113.392 106.952C112.193 107.609 111.022 108.269 109.882 108.931L110.885 110.661ZM117.889 106.818C119.052 106.214 120.239 105.614 121.45 105.018L120.567 103.223C119.343 103.826 118.143 104.433 116.967 105.043L117.889 106.818ZM125.039 103.298C126.236 102.739 127.454 102.186 128.693 101.639L127.885 99.8093C126.634 100.362 125.403 100.921 124.194 101.485L125.039 103.298ZM132.351 100.066C133.565 99.5579 134.798 99.0562 136.049 98.5617L135.313 96.7018C134.051 97.2011 132.806 97.7078 131.579 98.2209L132.351 100.066ZM139.793 97.123C141.023 96.6639 142.269 96.2122 143.53 95.7686L142.867 93.8819C141.594 94.3296 140.336 94.7857 139.093 95.2493L139.793 97.123ZM147.329 94.4736C148.578 94.0608 149.842 93.6564 151.118 93.261L150.527 91.3505C149.238 91.7496 147.963 92.1578 146.701 92.5745L147.329 94.4736ZM154.953 92.1134C156.222 91.7465 157.504 91.3888 158.797 91.041L158.278 89.1096C156.972 89.4607 155.678 89.8217 154.397 90.1921L154.953 92.1134ZM162.664 90.0403C163.95 89.7206 165.246 89.4107 166.554 89.1115L166.108 87.1619C164.788 87.464 163.479 87.7767 162.181 88.0995L162.664 90.0403ZM170.45 88.2583C171.749 87.9867 173.058 87.7257 174.376 87.476L174.004 85.5109C172.673 85.763 171.352 86.0265 170.041 86.3006L170.45 88.2583ZM178.299 86.7714C179.608 86.549 180.926 86.3379 182.253 86.1385L181.956 84.1607C180.616 84.362 179.286 84.5752 177.964 84.7996L178.299 86.7714ZM186.198 85.5843C187.516 85.4121 188.841 85.2517 190.174 85.1035L189.953 83.1157C188.607 83.2653 187.269 83.4273 185.939 83.6012L186.198 85.5843ZM194.138 84.7016C195.46 84.5804 196.79 84.4715 198.127 84.3752L197.984 82.3804C196.633 82.4776 195.291 82.5876 193.955 82.71L194.138 84.7016ZM202.105 84.1278C203.43 84.0584 204.763 84.0016 206.101 83.9579L206.036 81.9589C204.684 82.0031 203.339 82.0604 202 82.1305L202.105 84.1278ZM210.088 83.8671C211.415 83.85 212.747 83.8459 214.085 83.8552L214.099 81.8553C212.748 81.8458 211.402 81.85 210.063 81.8672L210.088 83.8671ZM218.076 83.923C219.401 83.9587 220.731 84.0077 222.065 84.0704L222.159 82.0726C220.811 82.0093 219.468 81.9597 218.13 81.9237L218.076 83.923ZM226.057 84.2984C227.377 84.3871 228.701 84.4894 230.03 84.6057L230.205 82.6133C228.862 82.4958 227.524 82.3925 226.191 82.3029L226.057 84.2984ZM234.018 84.9953C235.331 85.137 236.647 85.2925 237.968 85.4622L238.223 83.4785C236.889 83.3071 235.559 83.15 234.232 83.0068L234.018 84.9953ZM241.942 86.0138C243.246 86.2085 244.554 86.4172 245.866 86.6401L246.201 84.6683C244.876 84.4432 243.555 84.2324 242.237 84.0357L241.942 86.0138ZM249.805 87.351C251.105 87.5991 252.407 87.8615 253.712 88.1383L254.127 86.1819C252.809 85.9022 251.493 85.6372 250.181 85.3865L249.805 87.351ZM257.609 89.0062C258.902 89.3079 260.198 89.6241 261.497 89.9549L261.991 88.0168C260.679 87.6826 259.37 87.3633 258.064 87.0585L257.609 89.0062ZM265.343 90.9763C266.627 91.3312 267.914 91.7007 269.203 92.0851L269.774 90.1684C268.473 89.7802 267.173 89.407 265.875 89.0485L265.343 90.9763ZM272.996 93.2572C274.26 93.6618 275.526 94.0808 276.795 94.5146L277.442 92.6222C276.161 92.1841 274.882 91.7609 273.605 91.3523L272.996 93.2572ZM280.559 95.8441C281.801 96.2964 283.044 96.763 284.289 97.2442L285.01 95.3788C283.753 94.8929 282.498 94.4217 281.244 93.9649L280.559 95.8441ZM288.027 98.7316C289.244 99.2295 290.461 99.7415 291.68 100.268L292.473 98.4316C291.242 97.9003 290.013 97.3833 288.785 96.8806L288.027 98.7316ZM295.34 101.89C296.547 102.439 297.754 103.001 298.963 103.579L299.825 101.774C298.605 101.191 297.386 100.623 296.168 100.069L295.34 101.89ZM302.537 105.328C303.729 105.925 304.922 106.536 306.116 107.162L307.045 105.391C305.84 104.759 304.636 104.142 303.433 103.539L302.537 105.328ZM309.616 109.038C310.778 109.674 311.939 110.324 313.102 110.988L314.094 109.251C312.921 108.581 311.749 107.926 310.577 107.284L309.616 109.038ZM316.577 113.015C317.706 113.687 318.835 114.372 319.964 115.071L321.016 113.371C319.878 112.666 318.739 111.974 317.6 111.296L316.577 113.015ZM323.351 117.209C324.469 117.928 325.586 118.66 326.704 119.406L327.814 117.743C326.688 116.991 325.56 116.252 324.433 115.527L323.351 117.209ZM329.987 121.638C331.082 122.395 332.176 123.166 333.27 123.95L334.435 122.324C333.332 121.534 332.229 120.757 331.125 119.993L329.987 121.638ZM336.501 126.305C337.56 127.09 338.617 127.887 339.675 128.697L340.891 127.11C339.825 126.293 338.759 125.49 337.693 124.699L336.501 126.305Z" fill="black"/>
<path d="M85.6306 57.7152L86.2845 58.4717L86.3245 58.4372L86.3605 58.3987L85.6306 57.7152ZM346.355 81.0636L344.824 69.6185L335.677 76.667L346.355 81.0636ZM8.80244 257.484C8.80852 256.857 8.81774 256.219 8.83016 255.57L6.83053 255.532C6.81799 256.187 6.80868 256.831 6.80254 257.464L8.80244 257.484ZM8.93983 251.654C8.98627 250.382 9.04412 249.073 9.11391 247.73L7.11661 247.626C7.04629 248.979 6.98798 250.298 6.94116 251.581L8.93983 251.654ZM9.34584 243.808C9.42969 242.54 9.52366 241.245 9.62812 239.926L7.63436 239.768C7.52922 241.096 7.43463 242.399 7.35019 243.677L9.34584 243.808ZM9.96108 236.027C10.0787 234.742 10.2059 233.436 10.343 232.111L8.35361 231.905C8.2157 233.238 8.08774 234.552 7.96941 235.844L9.96108 236.027ZM10.7678 228.22C10.9146 226.943 11.0703 225.65 11.2352 224.341L9.2509 224.091C9.08505 225.407 8.92847 226.708 8.78091 227.992L10.7678 228.22ZM11.7482 220.44C11.9232 219.162 12.1069 217.871 12.2994 216.568L10.3209 216.276C10.1273 217.586 9.94267 218.884 9.76669 220.169L11.7482 220.44ZM12.8917 212.699C13.0953 211.413 13.3075 210.117 13.5284 208.811L11.5563 208.477C11.3343 209.79 11.121 211.094 10.9164 212.386L12.8917 212.699ZM14.1979 204.97C14.4277 203.691 14.6658 202.404 14.9123 201.108L12.9476 200.734C12.6997 202.037 12.4604 203.331 12.2294 204.617L14.1979 204.97ZM15.664 197.265C15.9197 195.993 16.1835 194.714 16.4556 193.429L14.499 193.015C14.2254 194.307 13.9602 195.593 13.7032 196.871L15.664 197.265ZM17.2892 189.591C17.5709 188.326 17.8607 187.056 18.1587 185.78L16.2112 185.325C15.9116 186.607 15.6202 187.885 15.337 189.157L17.2892 189.591ZM19.0741 181.955C19.3823 180.696 19.6986 179.434 20.0232 178.167L18.0858 177.671C17.7595 178.944 17.4414 180.214 17.1315 181.479L19.0741 181.955ZM21.0187 174.369C21.3548 173.114 21.6991 171.856 22.0516 170.596L20.1255 170.058C19.771 171.325 19.4248 172.589 19.0868 173.851L21.0187 174.369ZM23.1294 166.825C23.4939 165.576 23.8667 164.325 24.2477 163.073L22.3344 162.491C21.9511 163.75 21.5762 165.008 21.2095 166.265L23.1294 166.825ZM25.4103 159.331C25.804 158.089 26.2059 156.846 26.6163 155.604L24.7171 154.977C24.3043 156.227 23.8999 157.477 23.5039 158.726L25.4103 159.331ZM27.8666 151.892C28.2902 150.659 28.7222 149.426 29.1627 148.194L27.2795 147.521C26.8362 148.761 26.4014 150.001 25.9752 151.242L27.8666 151.892ZM30.504 144.516C30.9586 143.294 31.4216 142.072 31.8933 140.853L30.0279 140.131C29.5531 141.359 29.0869 142.589 28.6294 143.819L30.504 144.516ZM33.3291 137.211C33.8157 136.001 34.311 134.793 34.815 133.586L32.9697 132.815C32.4621 134.03 31.9634 135.247 31.4735 136.465L33.3291 137.211ZM36.3492 129.986C36.869 128.79 37.3977 127.596 37.9353 126.405L36.1126 125.582C35.5709 126.782 35.0384 127.984 34.5148 129.189L36.3492 129.986ZM39.572 122.851C40.1264 121.67 40.6898 120.493 41.2624 119.32L39.4651 118.443C38.888 119.625 38.3202 120.811 37.7616 122.001L39.572 122.851ZM43.006 115.817C43.5963 114.654 44.1959 113.495 44.8049 112.342L43.0362 111.408C42.4222 112.571 41.8177 113.739 41.2226 114.912L43.006 115.817ZM46.6598 108.897C47.2876 107.754 47.9248 106.616 48.5717 105.485L46.8353 104.492C46.1827 105.634 45.5399 106.781 44.9068 107.934L46.6598 108.897ZM50.5425 102.105C51.2092 100.985 51.8856 99.8705 52.5719 98.7631L50.8719 97.7095C50.1792 98.8273 49.4965 99.9517 48.8238 101.082L50.5425 102.105ZM54.6631 95.4576C55.3703 94.3625 56.0874 93.2747 56.8147 92.1946L55.1557 91.0776C54.4212 92.1685 53.697 93.267 52.983 94.3725L54.6631 95.4576ZM59.0305 88.9725C59.7796 87.9062 60.5389 86.8479 61.3087 85.7982L59.6958 84.6155C58.9179 85.6763 58.1507 86.7456 57.3939 87.823L59.0305 88.9725ZM63.653 82.6702C64.4453 81.6359 65.2481 80.6108 66.0616 79.5951L64.5006 78.3448C63.678 79.3719 62.8663 80.4084 62.0653 81.4539L63.653 82.6702ZM68.538 76.5726C69.3746 75.5744 70.222 74.5863 71.0804 73.6085L69.5774 72.289C68.7088 73.2784 67.8514 74.2782 67.0052 75.2878L68.538 76.5726ZM73.6914 70.7038C74.573 69.746 75.4658 68.7991 76.3698 67.8636L74.9315 66.4739C74.0161 67.4212 73.1123 68.3798 72.2199 69.3493L73.6914 70.7038ZM79.1171 65.0899C80.0441 64.177 80.9825 63.2759 81.9324 62.3871L80.5659 60.9267C79.6035 61.8273 78.6528 62.7402 77.7138 63.6648L79.1171 65.0899ZM84.8164 59.7579C85.3029 59.326 85.7923 58.8972 86.2845 58.4717L84.9766 56.9586C84.4776 57.39 83.9816 57.8246 83.4885 58.2624L84.8164 59.7579ZM86.3605 58.3987C86.8018 57.9274 87.25 57.4547 87.7051 56.9808L86.2624 55.5956C85.8016 56.0755 85.3476 56.5543 84.9006 57.0317L86.3605 58.3987ZM90.5174 54.1236C91.4392 53.2097 92.3854 52.2927 93.3556 51.3742L91.9805 49.9218C90.9993 50.8509 90.042 51.7785 89.1093 52.7033L90.5174 54.1236ZM96.2907 48.6573C97.262 47.7781 98.2546 46.8988 99.268 46.0207L97.9582 44.5092C96.934 45.3968 95.9306 46.2856 94.9486 47.1745L96.2907 48.6573ZM102.305 43.4451C103.32 42.6021 104.354 41.7612 105.407 40.9237L104.162 39.3585C103.098 40.2047 102.053 41.0544 101.027 41.9063L102.305 43.4451ZM108.539 38.4843C109.593 37.6805 110.664 36.8809 111.751 36.0865L110.571 34.4716C109.473 35.2741 108.391 36.0819 107.326 36.894L108.539 38.4843ZM114.974 33.7812C116.061 33.0204 117.162 32.2656 118.279 31.5175L117.165 29.856C116.038 30.6117 114.925 31.3743 113.827 32.1428L114.974 33.7812ZM121.596 29.3436C122.712 28.628 123.842 27.9196 124.986 27.2195L123.941 25.5138C122.786 26.2212 121.644 26.9368 120.516 27.6598L121.596 29.3436ZM128.393 25.1815C129.538 24.5125 130.696 23.8521 131.865 23.2013L130.893 21.4536C129.711 22.1113 128.541 22.7786 127.384 23.4547L128.393 25.1815ZM135.356 21.3069C136.529 20.6865 137.713 20.0761 138.908 19.4764L138.011 17.6888C136.803 18.295 135.606 18.912 134.421 19.539L135.356 21.3069ZM142.477 17.7336C143.676 17.1644 144.885 16.6063 146.105 16.0601L145.287 14.2349C144.054 14.7871 142.831 15.3514 141.619 15.9269L142.477 17.7336ZM149.747 14.4775C150.97 13.9622 152.203 13.4593 153.446 12.9693L152.712 11.1088C151.455 11.6044 150.208 12.1132 148.97 12.6343L149.747 14.4775ZM157.155 11.556C158.401 11.0981 159.655 10.6536 160.917 10.2232L160.272 8.3301C158.994 8.7657 157.725 9.21552 156.465 9.67886L157.155 11.556ZM164.691 8.9875C165.956 8.59021 167.229 8.20736 168.51 7.83963L167.958 5.91729C166.661 6.28963 165.372 6.67722 164.092 7.0794L164.691 8.9875ZM172.342 6.7912C173.624 6.45772 174.913 6.13966 176.21 5.83767L175.756 3.88981C174.443 4.19572 173.137 4.51787 171.838 4.85561L172.342 6.7912ZM180.092 4.98631C181.388 4.71978 182.691 4.46958 184.001 4.23634L183.65 2.26733C182.323 2.50371 181.003 2.75725 179.689 3.0273L180.092 4.98631ZM187.926 3.59144C189.233 3.39481 190.545 3.21534 191.864 3.05363L191.621 1.0685C190.284 1.23245 188.953 1.41439 187.628 1.6137L187.926 3.59144ZM195.823 2.6238C197.136 2.49967 198.455 2.39342 199.779 2.30565L199.647 0.310026C198.304 0.399052 196.966 0.506799 195.635 0.632676L195.823 2.6238ZM203.763 2.09844C205.078 2.04885 206.398 2.01775 207.723 2.0057L207.704 0.00578398C206.36 0.01801 205.021 0.0495561 203.687 0.0998589L203.763 2.09844ZM211.711 2.02723C213.026 2.05346 214.346 2.09875 215.671 2.16364L215.769 0.166033C214.425 0.100194 213.085 0.0542392 211.751 0.0276295L211.711 2.02723ZM219.643 2.41665C220.958 2.51975 222.277 2.64245 223.599 2.78525L223.814 0.796814C222.472 0.651902 221.134 0.527394 219.8 0.422772L219.643 2.41665ZM227.539 3.26939C228.851 3.45007 230.165 3.65081 231.483 3.8721L231.815 1.89971C230.477 1.67516 229.143 1.47145 227.812 1.28811L227.539 3.26939ZM235.374 4.58371C236.674 4.84103 237.976 5.11863 239.282 5.41696L239.727 3.46723C238.403 3.16455 237.081 2.88289 235.762 2.62179L235.374 4.58371ZM243.125 6.35365C244.402 6.68429 245.681 7.03504 246.962 7.40635L247.519 5.48537C246.219 5.10875 244.922 4.75294 243.626 4.41753L243.125 6.35365ZM250.774 8.56988C252.022 8.97016 253.272 9.39021 254.524 9.83041L255.187 7.94369C253.918 7.49734 252.651 7.0714 251.385 6.66546L250.774 8.56988ZM258.284 11.2119C259.506 11.6799 260.729 12.1674 261.953 12.6747L262.719 10.827C261.478 10.3128 260.238 9.81873 259 9.34429L258.284 11.2119ZM265.608 14.2461C266.819 14.7858 268.031 15.3452 269.244 15.9246L270.106 14.1198C268.877 13.5329 267.649 12.9662 266.422 12.4194L265.608 14.2461ZM272.779 17.6681C273.958 18.2684 275.139 18.8878 276.32 19.5267L277.271 17.7676C276.076 17.1208 274.88 16.4936 273.686 15.8857L272.779 17.6681ZM279.798 21.4632C280.933 22.1136 282.069 22.7823 283.206 23.4695L284.241 21.758C283.09 21.0626 281.941 20.386 280.792 19.7277L279.798 21.4632ZM286.617 25.5871C287.723 26.2913 288.829 27.0134 289.936 27.7535L291.048 26.0911C289.929 25.3427 288.81 24.6125 287.692 23.9002L286.617 25.5871ZM293.205 29.9924C294.295 30.7564 295.386 31.5382 296.476 32.338L297.659 30.7252C296.557 29.917 295.455 29.1269 294.353 28.3546L293.205 29.9924ZM299.643 34.7116C300.684 35.5083 301.725 36.3216 302.765 37.1518L304.013 35.5883C302.962 34.7499 301.91 33.9284 300.859 33.1235L299.643 34.7116ZM305.887 39.693C306.898 40.5321 307.908 41.3873 308.918 42.2589L310.225 40.7446C309.205 39.8649 308.185 39.0016 307.165 38.1543L305.887 39.693ZM311.888 44.8688C312.878 45.7546 313.867 46.6562 314.856 47.5738L316.216 46.1077C315.219 45.182 314.22 44.2723 313.222 43.3785L311.888 44.8688ZM317.771 50.3257C318.71 51.2276 319.648 52.1441 320.586 53.0754L321.995 51.6561C321.05 50.7171 320.103 49.7929 319.156 48.8833L317.771 50.3257ZM323.399 55.9139C324.336 56.8749 325.273 57.851 326.209 58.8421L327.663 57.4689C326.72 56.4701 325.776 55.4863 324.831 54.5176L323.399 55.9139ZM328.883 61.7158C329.769 62.6833 330.656 63.6646 331.541 64.6598L333.035 63.3302C332.143 62.3278 331.25 61.3393 330.357 60.3644L328.883 61.7158ZM334.196 67.6871C335.066 68.6935 335.935 69.7134 336.804 70.7469L338.335 69.4603C337.46 68.4197 336.585 67.3927 335.709 66.3793L334.196 67.6871ZM339.311 73.7717C340.146 74.7927 340.981 75.8265 341.814 76.8733L343.379 75.6273C342.54 74.5738 341.7 73.5332 340.859 72.5054L339.311 73.7717Z" fill="black"/>
<path d="M101.196 420.902L101.71 420.045L101.746 420.066L101.78 420.091L101.196 420.902ZM347.652 406.634L343.435 417.383L336.234 408.356L347.652 406.634ZM13.9907 280.825C13.9822 281.452 13.9806 282.092 13.9862 282.745L11.9863 282.762C11.9805 282.094 11.9822 281.44 11.9908 280.798L13.9907 280.825ZM14.0996 286.64C14.1611 287.901 14.2477 289.199 14.3609 290.534L12.3681 290.703C12.2528 289.345 12.1647 288.023 12.102 286.738L14.0996 286.64ZM14.754 294.404C14.9026 295.664 15.0741 296.952 15.2697 298.265L13.2916 298.56C13.0929 297.227 12.9187 295.919 12.7677 294.638L14.754 294.404ZM15.9007 302.113C16.1255 303.371 16.372 304.649 16.641 305.945L14.6827 306.351C14.4099 305.037 14.16 303.741 13.9319 302.465L15.9007 302.113ZM17.4846 309.753C17.7779 310.998 18.0918 312.258 18.427 313.532L16.4928 314.041C16.1532 312.75 15.8351 311.473 15.5379 310.211L17.4846 309.753ZM19.4664 317.288C19.8244 318.521 20.2023 319.765 20.6007 321.02L18.6945 321.625C18.291 320.354 17.9083 319.094 17.5457 317.846L19.4664 317.288ZM21.8279 324.726C22.248 325.944 22.6874 327.171 23.1468 328.406L21.2723 329.103C20.8073 327.853 20.3624 326.611 19.9372 325.378L21.8279 324.726ZM24.5548 332.055C25.0317 333.248 25.5273 334.448 26.0422 335.653L24.2031 336.439C23.682 335.219 23.1803 334.005 22.6976 332.797L24.5548 332.055ZM27.6169 339.221C28.152 340.396 28.7056 341.576 29.2781 342.759L27.4778 343.63C26.8985 342.433 26.3383 341.239 25.7968 340.05L27.6169 339.221ZM31.0242 346.262C31.6116 347.407 32.2169 348.555 32.8406 349.705L31.0826 350.658C30.4515 349.495 29.839 348.334 29.2447 347.175L31.0242 346.262ZM34.7405 353.114C35.3837 354.237 36.0446 355.362 36.7237 356.487L35.0112 357.521C34.3242 356.382 33.6555 355.244 33.0048 354.107L34.7405 353.114ZM38.7764 359.804C39.4679 360.893 40.1767 361.983 40.9032 363.072L39.2392 364.182C38.5044 363.08 37.7874 361.978 37.0879 360.876L38.7764 359.804ZM43.1108 366.303C43.8515 367.361 44.6092 368.419 45.3842 369.475L43.7718 370.658C42.9879 369.59 42.2215 368.52 41.4723 367.45L43.1108 366.303ZM47.7261 372.593C48.5161 373.621 49.323 374.647 50.1469 375.671L48.5886 376.925C47.7553 375.889 46.9394 374.851 46.1403 373.812L47.7261 372.593ZM52.6228 378.68C53.4549 379.67 54.3033 380.656 55.1684 381.64L53.6663 382.961C52.7916 381.966 51.9337 380.968 51.0924 379.968L52.6228 378.68ZM57.7873 384.555C58.6588 385.504 59.5463 386.45 60.4499 387.393L59.0061 388.776C58.0926 387.823 57.1954 386.867 56.3142 385.908L57.7873 384.555ZM63.1884 390.189C64.1022 391.103 65.0316 392.013 65.9768 392.919L64.5928 394.363C63.6374 393.447 62.698 392.527 61.7744 391.604L63.1884 390.189ZM68.8229 395.591C69.7778 396.469 70.748 397.342 71.7337 398.212L70.4108 399.712C69.4146 398.833 68.4342 397.95 67.4693 397.063L68.8229 395.591ZM74.6799 400.758C75.6718 401.598 76.6789 402.433 77.7011 403.263L76.4399 404.816C75.4072 403.977 74.3898 403.133 73.3876 402.284L74.6799 400.758ZM80.7438 405.686C81.7668 406.484 82.8045 407.278 83.857 408.066L82.6579 409.667C81.5949 408.871 80.5468 408.069 79.5134 407.263L80.7438 405.686ZM86.999 410.373C88.051 411.13 89.1171 411.882 90.1976 412.629L89.0606 414.274C87.9697 413.52 86.8932 412.761 85.8309 411.997L86.999 410.373ZM93.4302 414.818C94.5091 415.534 95.6017 416.245 96.7082 416.951L95.633 418.637C94.5162 417.925 93.4133 417.207 92.3242 416.484L93.4302 414.818ZM100.023 419.021C100.582 419.364 101.144 419.705 101.71 420.045L100.681 421.76C100.11 421.417 99.5424 421.073 98.9781 420.727L100.023 419.021ZM101.78 420.091C102.3 420.465 102.83 420.841 103.372 421.218L102.229 422.859C101.679 422.476 101.14 422.094 100.611 421.713L101.78 420.091ZM106.685 423.45C107.778 424.163 108.909 424.878 110.076 425.595L109.029 427.299C107.847 426.574 106.701 425.848 105.592 425.125L106.685 423.45ZM113.479 427.624C114.606 428.278 115.762 428.93 116.948 429.58L115.986 431.334C114.787 430.676 113.617 430.016 112.476 429.355L113.479 427.624ZM120.483 431.467C121.646 432.071 122.833 432.672 124.044 433.268L123.161 435.062C121.937 434.46 120.737 433.853 119.562 433.242L120.483 431.467ZM127.634 434.988C128.831 435.546 130.049 436.1 131.287 436.647L130.479 438.476C129.228 437.923 127.997 437.364 126.788 436.8L127.634 434.988ZM134.945 438.219C136.16 438.727 137.392 439.229 138.643 439.724L137.907 441.584C136.645 441.084 135.4 440.578 134.173 440.064L134.945 438.219ZM142.387 441.162C143.617 441.622 144.863 442.073 146.125 442.517L145.461 444.404C144.188 443.956 142.93 443.5 141.688 443.036L142.387 441.162ZM149.923 443.812C151.172 444.225 152.436 444.629 153.713 445.024L153.121 446.935C151.832 446.536 150.557 446.128 149.296 445.711L149.923 443.812ZM157.547 446.172C158.816 446.539 160.098 446.897 161.392 447.244L160.872 449.176C159.566 448.825 158.273 448.464 156.991 448.093L157.547 446.172ZM165.258 448.245C166.544 448.565 167.841 448.875 169.148 449.174L168.702 451.123C167.382 450.821 166.073 450.509 164.776 450.186L165.258 448.245ZM173.044 450.027C174.343 450.299 175.652 450.56 176.97 450.809L176.598 452.774C175.267 452.522 173.946 452.259 172.635 451.985L173.044 450.027ZM180.893 451.514C182.202 451.736 183.521 451.947 184.848 452.147L184.55 454.125C183.211 453.923 181.88 453.71 180.558 453.486L180.893 451.514ZM188.793 452.701C190.11 452.873 191.435 453.034 192.768 453.182L192.547 455.17C191.201 455.02 189.863 454.858 188.533 454.684L188.793 452.701ZM196.732 453.584C198.054 453.705 199.384 453.814 200.721 453.91L200.578 455.905C199.228 455.808 197.885 455.698 196.549 455.575L196.732 453.584ZM204.699 454.158C206.025 454.227 207.357 454.284 208.696 454.328L208.63 456.326C207.279 456.282 205.933 456.225 204.594 456.155L204.699 454.158ZM212.683 454.418C214.009 454.435 215.341 454.44 216.679 454.43L216.693 456.43C215.342 456.44 213.996 456.435 212.657 456.418L212.683 454.418ZM220.671 454.362C221.995 454.327 223.325 454.278 224.659 454.215L224.753 456.213C223.405 456.276 222.062 456.326 220.725 456.362L220.671 454.362ZM228.651 453.987C229.971 453.898 231.296 453.796 232.625 453.68L232.799 455.672C231.456 455.79 230.119 455.893 228.785 455.983L228.651 453.987ZM236.612 453.29C237.925 453.148 239.242 452.993 240.562 452.823L240.817 454.807C239.483 454.978 238.153 455.135 236.827 455.279L236.612 453.29ZM244.536 452.272C245.841 452.077 247.149 451.868 248.46 451.645L248.795 453.617C247.47 453.842 246.149 454.053 244.831 454.25L244.536 452.272ZM252.4 450.934C253.699 450.686 255.001 450.424 256.307 450.147L256.722 452.104C255.403 452.383 254.087 452.648 252.775 452.899L252.4 450.934ZM260.204 449.279C261.497 448.978 262.792 448.661 264.091 448.33L264.585 450.269C263.273 450.603 261.964 450.922 260.658 451.227L260.204 449.279ZM267.937 447.309C269.221 446.954 270.508 446.585 271.797 446.2L272.369 448.117C271.067 448.505 269.767 448.878 268.47 449.237L267.937 447.309ZM275.59 445.028C276.854 444.624 278.121 444.205 279.389 443.771L280.036 445.663C278.755 446.101 277.476 446.524 276.199 446.933L275.59 445.028ZM283.154 442.441C284.395 441.989 285.639 441.522 286.883 441.041L287.605 442.907C286.348 443.393 285.092 443.864 283.838 444.321L283.154 442.441ZM290.621 439.554C291.838 439.056 293.056 438.544 294.274 438.018L295.067 439.854C293.837 440.385 292.607 440.902 291.379 441.405L290.621 439.554ZM297.934 436.395C299.141 435.847 300.348 435.284 301.557 434.707L302.419 436.511C301.199 437.094 299.98 437.662 298.762 438.216L297.934 436.395ZM305.131 432.958C306.324 432.361 307.517 431.749 308.71 431.124L309.639 432.895C308.434 433.526 307.23 434.143 306.027 434.746L305.131 432.958ZM312.21 429.248C313.372 428.611 314.534 427.962 315.696 427.298L316.688 429.034C315.515 429.704 314.343 430.36 313.171 431.002L312.21 429.248ZM319.171 425.271C320.3 424.599 321.429 423.913 322.558 423.214L323.611 424.915C322.472 425.62 321.333 426.311 320.194 426.989L319.171 425.271ZM325.946 421.076C327.063 420.357 328.181 419.625 329.298 418.879L330.409 420.542C329.282 421.295 328.155 422.033 327.028 422.758L325.946 421.076ZM332.582 416.647C333.676 415.89 334.77 415.12 335.864 414.336L337.029 415.961C335.926 416.752 334.823 417.528 333.719 418.292L332.582 416.647ZM339.096 411.98C340.154 411.195 341.212 410.398 342.269 409.588L343.486 411.176C342.42 411.992 341.353 412.796 340.287 413.587L339.096 411.98Z" fill="black"/>
<path d="M88.2247 480.57L88.8787 479.814L88.9186 479.848L88.9547 479.887L88.2247 480.57ZM348.949 457.222L347.418 468.667L338.272 461.619L348.949 457.222ZM11.3966 280.802C11.4026 281.428 11.4119 282.066 11.4243 282.716L9.42465 282.754C9.4121 282.098 9.4028 281.454 9.39665 280.821L11.3966 280.802ZM11.5339 286.632C11.5804 287.904 11.6382 289.213 11.708 290.555L9.71072 290.659C9.64041 289.306 9.5821 287.987 9.53528 286.705L11.5339 286.632ZM11.94 294.477C12.0238 295.746 12.1178 297.04 12.2222 298.36L10.2285 298.518C10.1233 297.19 10.0287 295.886 9.94431 294.609L11.94 294.477ZM12.5552 302.259C12.6728 303.544 12.8 304.849 12.9371 306.175L10.9477 306.381C10.8098 305.047 10.6819 303.734 10.5635 302.441L12.5552 302.259ZM13.362 310.065C13.5087 311.343 13.6644 312.636 13.8293 313.945L11.845 314.195C11.6792 312.879 11.5226 311.578 11.375 310.294L13.362 310.065ZM14.3423 317.846C14.5173 319.123 14.701 320.414 14.8935 321.717L12.915 322.01C12.7214 320.7 12.5368 319.402 12.3608 318.117L14.3423 317.846ZM15.4858 325.587C15.6895 326.872 15.9016 328.169 16.1225 329.475L14.1505 329.808C13.9284 328.495 13.7152 327.192 13.5105 325.9L15.4858 325.587ZM16.792 333.315C17.0218 334.594 17.2599 335.882 17.5064 337.178L15.5417 337.552C15.2938 336.249 15.0545 334.955 14.8236 333.669L16.792 333.315ZM18.2581 341.02C18.5138 342.292 18.7776 343.571 19.0498 344.856L17.0931 345.271C16.8195 343.979 16.5543 342.693 16.2973 341.414L18.2581 341.02ZM19.8833 348.694C20.165 349.959 20.4548 351.23 20.7529 352.505L18.8053 352.961C18.5057 351.678 18.2143 350.401 17.9311 349.129L19.8833 348.694ZM21.6682 356.331C21.9764 357.589 22.2927 358.852 22.6173 360.118L20.6799 360.615C20.3536 359.342 20.0355 358.072 19.7256 356.807L21.6682 356.331ZM23.6128 363.917C23.9489 365.172 24.2932 366.429 24.6457 367.689L22.7196 368.228C22.3651 366.961 22.019 365.696 21.6809 364.435L23.6128 363.917ZM25.7235 371.461C26.0881 372.71 26.4608 373.96 26.8418 375.213L24.9285 375.795C24.5452 374.535 24.1703 373.277 23.8036 372.021L25.7235 371.461ZM28.0045 378.955C28.3981 380.197 28.8001 381.439 29.2104 382.682L27.3112 383.309C26.8984 382.059 26.494 380.809 26.098 379.56L28.0045 378.955ZM30.4607 386.394C30.8843 387.627 31.3163 388.859 31.7569 390.091L29.8736 390.765C29.4303 389.525 28.9955 388.284 28.5693 387.044L30.4607 386.394ZM33.0981 393.77C33.5527 394.992 34.0157 396.213 34.4875 397.433L32.6221 398.154C32.1472 396.926 31.6811 395.697 31.2235 394.467L33.0981 393.77ZM35.9232 401.074C36.4098 402.285 36.9051 403.493 37.4091 404.699L35.5638 405.47C35.0562 404.256 34.5575 403.039 34.0676 401.82L35.9232 401.074ZM38.9433 408.299C39.4631 409.496 39.9918 410.69 40.5295 411.88L38.7067 412.703C38.1651 411.504 37.6325 410.301 37.1089 409.096L38.9433 408.299ZM42.1661 415.435C42.7205 416.615 43.284 417.793 43.8566 418.966L42.0592 419.843C41.4821 418.661 40.9143 417.474 40.3557 416.284L42.1661 415.435ZM45.6001 422.469C46.1904 423.632 46.79 424.79 47.399 425.944L45.6303 426.878C45.0163 425.714 44.4118 424.546 43.8167 423.374L45.6001 422.469ZM49.2539 429.389C49.8817 430.532 50.5189 431.669 51.1658 432.801L49.4294 433.794C48.7768 432.652 48.134 431.504 47.5009 430.351L49.2539 429.389ZM53.1366 436.181C53.8033 437.301 54.4798 438.415 55.166 439.523L53.466 440.576C52.7733 439.458 52.0906 438.334 51.4179 437.203L53.1366 436.181ZM57.2572 442.828C57.9644 443.923 58.6816 445.011 59.4088 446.091L57.7498 447.208C57.0153 446.117 56.2911 445.019 55.5771 443.913L57.2572 442.828ZM61.6246 449.313C62.3737 450.379 63.133 451.438 63.9028 452.487L62.2899 453.67C61.5121 452.609 60.7448 451.54 59.988 450.463L61.6246 449.313ZM66.2471 455.615C67.0394 456.65 67.8423 457.675 68.6558 458.691L67.0947 459.941C66.2721 458.914 65.4604 457.877 64.6595 456.832L66.2471 455.615ZM71.1321 461.713C71.9687 462.711 72.8161 463.699 73.6745 464.677L72.1715 465.997C71.3029 465.007 70.4456 464.007 69.5993 462.998L71.1321 461.713ZM76.2855 467.582C77.1671 468.54 78.0599 469.486 78.9639 470.422L77.5256 471.812C76.6103 470.864 75.7064 469.906 74.814 468.936L76.2855 467.582ZM81.7112 473.196C82.6382 474.109 83.5766 475.01 84.5265 475.899L83.16 477.359C82.1976 476.458 81.2469 475.545 80.3079 474.621L81.7112 473.196ZM87.4106 478.528C87.897 478.96 88.3864 479.388 88.8787 479.814L87.5708 481.327C87.0717 480.896 86.5757 480.461 86.0827 480.023L87.4106 478.528ZM88.9547 479.887C89.3959 480.358 89.8441 480.831 90.2992 481.305L88.8565 482.69C88.3957 482.21 87.9418 481.731 87.4948 481.254L88.9547 479.887ZM93.1116 484.162C94.0333 485.076 94.9795 485.993 95.9497 486.911L94.5746 488.364C93.5934 487.435 92.6361 486.507 91.7034 485.582L93.1116 484.162ZM98.8848 489.628C99.8561 490.508 100.849 491.387 101.862 492.265L100.552 493.776C99.5281 492.889 98.5247 492 97.5427 491.111L98.8848 489.628ZM104.899 494.841C105.914 495.684 106.949 496.524 108.001 497.362L106.756 498.927C105.693 498.081 104.647 497.231 103.621 496.379L104.899 494.841ZM111.133 499.801C112.187 500.605 113.258 501.405 114.345 502.199L113.165 503.814C112.067 503.012 110.985 502.204 109.92 501.392L111.133 499.801ZM117.568 504.504C118.655 505.265 119.756 506.02 120.873 506.768L119.76 508.43C118.632 507.674 117.519 506.911 116.421 506.143L117.568 504.504ZM124.19 508.942C125.306 509.658 126.436 510.366 127.58 511.066L126.536 512.772C125.38 512.064 124.238 511.349 123.11 510.626L124.19 508.942ZM130.987 513.104C132.132 513.773 133.29 514.434 134.459 515.084L133.487 516.832C132.305 516.174 131.135 515.507 129.978 514.831L130.987 513.104ZM137.95 516.979C139.123 517.599 140.307 518.21 141.502 518.809L140.605 520.597C139.397 519.991 138.2 519.374 137.015 518.747L137.95 516.979ZM145.071 520.552C146.27 521.121 147.479 521.679 148.699 522.226L147.881 524.051C146.648 523.498 145.425 522.934 144.213 522.359L145.071 520.552ZM152.341 523.808C153.564 524.323 154.797 524.826 156.04 525.316L155.306 527.177C154.049 526.681 152.802 526.172 151.565 525.651L152.341 523.808ZM159.749 526.73C160.995 527.188 162.249 527.632 163.512 528.062L162.866 529.956C161.588 529.52 160.319 529.07 159.059 528.607L159.749 526.73ZM167.285 529.298C168.55 529.695 169.823 530.078 171.104 530.446L170.552 532.368C169.255 531.996 167.966 531.608 166.686 531.206L167.285 529.298ZM174.936 531.494C176.218 531.828 177.507 532.146 178.804 532.448L178.35 534.396C177.037 534.09 175.731 533.768 174.432 533.43L174.936 531.494ZM182.686 533.299C183.983 533.566 185.285 533.816 186.595 534.049L186.244 536.018C184.917 535.782 183.597 535.528 182.284 535.258L182.686 533.299ZM190.52 534.694C191.827 534.891 193.14 535.07 194.458 535.232L194.215 537.217C192.878 537.053 191.547 536.871 190.222 536.672L190.52 534.694ZM198.417 535.662C199.73 535.786 201.049 535.892 202.373 535.98L202.241 537.976C200.898 537.887 199.561 537.779 198.229 537.653L198.417 535.662ZM206.357 536.187C207.672 536.237 208.992 536.268 210.317 536.28L210.299 538.28C208.955 538.268 207.615 538.236 206.281 538.186L206.357 536.187ZM214.305 536.258C215.62 536.232 216.941 536.187 218.265 536.122L218.363 538.12C217.019 538.185 215.68 538.231 214.345 538.258L214.305 536.258ZM222.238 535.869C223.552 535.766 224.871 535.643 226.193 535.5L226.408 537.489C225.066 537.634 223.728 537.758 222.394 537.863L222.238 535.869ZM230.133 535.016C231.445 534.836 232.76 534.635 234.078 534.414L234.409 536.386C233.071 536.61 231.737 536.814 230.406 536.998L230.133 535.016ZM237.968 533.702C239.268 533.445 240.571 533.167 241.876 532.869L242.322 534.818C240.997 535.121 239.675 535.403 238.356 535.664L237.968 533.702ZM245.719 531.932C246.996 531.601 248.275 531.251 249.556 530.879L250.113 532.8C248.813 533.177 247.516 533.533 246.221 533.868L245.719 531.932ZM253.368 529.716C254.616 529.315 255.866 528.895 257.118 528.455L257.781 530.342C256.512 530.788 255.245 531.214 253.979 531.62L253.368 529.716ZM260.878 527.074C262.1 526.606 263.323 526.118 264.548 525.611L265.313 527.459C264.072 527.973 262.832 528.467 261.594 528.941L260.878 527.074ZM268.202 524.04C269.413 523.5 270.625 522.94 271.838 522.361L272.7 524.166C271.471 524.753 270.243 525.319 269.016 525.866L268.202 524.04ZM275.373 520.618C276.552 520.017 277.733 519.398 278.914 518.759L279.865 520.518C278.67 521.165 277.475 521.792 276.28 522.4L275.373 520.618ZM282.392 516.822C283.527 516.172 284.663 515.503 285.8 514.816L286.835 516.528C285.685 517.223 284.535 517.9 283.386 518.558L282.392 516.822ZM289.212 512.699C290.317 511.994 291.424 511.272 292.53 510.532L293.642 512.195C292.523 512.943 291.404 513.673 290.286 514.385L289.212 512.699ZM295.799 508.293C296.89 507.529 297.98 506.747 299.07 505.948L300.253 507.56C299.151 508.369 298.049 509.159 296.947 509.931L295.799 508.293ZM302.237 503.574C303.278 502.777 304.319 501.964 305.36 501.134L306.607 502.697C305.556 503.536 304.505 504.357 303.453 505.162L302.237 503.574ZM308.481 498.593C309.492 497.754 310.502 496.898 311.512 496.027L312.819 497.541C311.799 498.421 310.779 499.284 309.759 500.131L308.481 498.593ZM314.482 493.417C315.472 492.531 316.461 491.629 317.45 490.712L318.81 492.178C317.813 493.104 316.815 494.013 315.816 494.907L314.482 493.417ZM320.365 487.96C321.304 487.058 322.242 486.142 323.18 485.21L324.59 486.63C323.644 487.569 322.697 488.493 321.75 489.402L320.365 487.96ZM325.993 482.372C326.931 481.411 327.867 480.435 328.803 479.444L330.257 480.817C329.314 481.816 328.37 482.799 327.425 483.768L325.993 482.372ZM331.477 476.57C332.363 475.602 333.25 474.621 334.135 473.626L335.629 474.955C334.737 475.958 333.845 476.946 332.951 477.921L331.477 476.57ZM336.79 470.599C337.66 469.592 338.529 468.572 339.398 467.539L340.929 468.825C340.055 469.866 339.179 470.893 338.303 471.906L336.79 470.599ZM341.905 464.514C342.74 463.493 343.575 462.459 344.408 461.412L345.973 462.658C345.134 463.712 344.294 464.752 343.453 465.78L341.905 464.514Z" fill="black"/>
<ellipse cx="12.0609" cy="268.925" rx="12.0609" ry="13.7839" fill="black"/>
<path d="M578.949 270.389L568.949 264.616V276.163L578.949 270.389ZM26.4492 271.389H28.451V269.389H26.4492V271.389ZM32.4547 271.389H36.4583V269.389H32.4547V271.389ZM40.4619 271.389H44.4655V269.389H40.4619V271.389ZM48.4691 271.389H52.4728V269.389H48.4691V271.389ZM56.4764 271.389H60.48V269.389H56.4764V271.389ZM64.4836 271.389H68.4873V269.389H64.4836V271.389ZM72.4909 271.389H76.4945V269.389H72.4909V271.389ZM80.4981 271.389H84.5018V269.389H80.4981V271.389ZM88.5054 271.389H92.509V269.389H88.5054V271.389ZM96.5126 271.389H100.516V269.389H96.5126V271.389ZM104.52 271.389H108.524V269.389H104.52V271.389ZM112.527 271.389H116.531V269.389H112.527V271.389ZM120.534 271.389H124.538V269.389H120.534V271.389ZM128.542 271.389H132.545V269.389H128.542V271.389ZM136.549 271.389H140.553V269.389H136.549V271.389ZM144.556 271.389H148.56V269.389H144.556V271.389ZM152.563 271.389H156.567V269.389H152.563V271.389ZM160.571 271.389H164.574V269.389H160.571V271.389ZM168.578 271.389H172.581V269.389H168.578V271.389ZM176.585 271.389H180.589V269.389H176.585V271.389ZM184.592 271.389H188.596V269.389H184.592V271.389ZM192.6 271.389H196.603V269.389H192.6V271.389ZM200.607 271.389H204.61V269.389H200.607V271.389ZM208.614 271.389H212.618V269.389H208.614V271.389ZM216.621 271.389H220.625V269.389H216.621V271.389ZM224.628 271.389H228.632V269.389H224.628V271.389ZM232.636 271.389H236.639V269.389H232.636V271.389ZM240.643 271.389H244.647V269.389H240.643V271.389ZM248.65 271.389H252.654V269.389H248.65V271.389ZM256.657 271.389H260.661V269.389H256.657V271.389ZM264.665 271.389H268.668V269.389H264.665V271.389ZM272.672 271.389H276.675V269.389H272.672V271.389ZM280.679 271.389H284.683V269.389H280.679V271.389ZM288.686 271.389H292.69V269.389H288.686V271.389ZM296.694 271.389H300.697V269.389H296.694V271.389ZM304.701 271.389H308.704V269.389H304.701V271.389ZM312.708 271.389H316.712V269.389H312.708V271.389ZM320.715 271.389H324.719V269.389H320.715V271.389ZM328.723 271.389H332.726V269.389H328.723V271.389ZM336.73 271.389H340.734V269.389H336.73V271.389ZM344.737 271.389H348.741V269.389H344.737V271.389ZM352.744 271.389H356.748V269.389H352.744V271.389ZM360.752 271.389H364.755V269.389H360.752V271.389ZM368.759 271.389H372.763V269.389H368.759V271.389ZM376.766 271.389H380.77V269.389H376.766V271.389ZM384.773 271.389H388.777V269.389H384.773V271.389ZM392.781 271.389H396.784V269.389H392.781V271.389ZM400.788 271.389H404.792V269.389H400.788V271.389ZM408.795 271.389H412.799V269.389H408.795V271.389ZM416.803 271.389H420.806V269.389H416.803V271.389ZM424.81 271.389H428.813V269.389H424.81V271.389ZM432.817 271.389H436.821V269.389H432.817V271.389ZM440.824 271.389H444.828V269.389H440.824V271.389ZM448.832 271.389H452.835V269.389H448.832V271.389ZM456.839 271.389H460.842V269.389H456.839V271.389ZM464.846 271.389H468.85V269.389H464.846V271.389ZM472.853 271.389H476.857V269.389H472.853V271.389ZM480.861 271.389H484.864V269.389H480.861V271.389ZM488.868 271.389H492.872V269.389H488.868V271.389ZM496.875 271.389H500.879V269.389H496.875V271.389ZM504.882 271.389H508.886V269.389H504.882V271.389ZM512.89 271.389H516.893V269.389H512.89V271.389ZM520.897 271.389H524.901V269.389H520.897V271.389ZM528.904 271.389H532.908V269.389H528.904V271.389ZM536.912 271.389H540.915V269.389H536.912V271.389ZM544.919 271.389H548.922V269.389H544.919V271.389ZM552.926 271.389H556.93V269.389H552.926V271.389ZM560.933 271.389H564.937V269.389H560.933V271.389ZM568.94 271.389H572.944V269.389H568.94V271.389Z" fill="black"/>
</svg>
